<?xml version="1.0" standalone="no"?>
<!DOCTYPE svg PUBLIC "-//W3C//DTD SVG 1.1//EN" "http://www.w3.org/Graphics/SVG/1.1/DTD/svg11.dtd" >
<svg xmlns="http://www.w3.org/2000/svg">
<metadata></metadata>
<defs>
<font id="windsor_medium_btregular" horiz-adv-x="721" >
<font-face units-per-em="2048" ascent="1638" descent="-410" />
<missing-glyph horiz-adv-x="360" />
<glyph horiz-adv-x="2048" />
<glyph horiz-adv-x="2048" />
<glyph unicode="&#xd;" horiz-adv-x="360" />
<glyph unicode=" "  horiz-adv-x="360" />
<glyph unicode="&#x09;" horiz-adv-x="360" />
<glyph unicode="&#xa0;" horiz-adv-x="360" />
<glyph unicode="!" horiz-adv-x="502" d="M121 1292q0 189 129 189t129 -189q0 -41 -19 -201l-73 -614q-1 -4 -2 -14q-3 -29 -25 -29h-20q-22 0 -25 29q-1 2 -2 14l-74 615q-1 12 -5 46q-13 112 -13 154zM135 135q0 146 115 146t115 -146q0 -145 -115 -145t-115 145z" />
<glyph unicode="&#x22;" horiz-adv-x="694" d="M84 1354q0 108 94 108q96 0 96 -108q0 -27 -2 -40l-73 -458h-39l-74 459q-2 12 -2 39zM420 1354q0 108 96 108t96 -106q0 -13 -3 -36q-1 -4 -1 -5l-73 -459h-39l-74 458q-2 12 -2 40z" />
<glyph unicode="#" horiz-adv-x="1575" d="M70 428l59 168h301l92 262h-319l61 166h318l155 436h183l-156 -436h268l156 436h182l-156 -436h291l-59 -166h-291l-92 -262h307l-59 -168h-307l-154 -434h-184l155 434h-268l-154 -434h-184l156 434h-301zM608 594h275l94 264h-275z" />
<glyph unicode="$" d="M33 1094q0 262 254 297v106q0 16 22 16h31q30 0 33 -25v-93q10 -4 22 -4q15 0 43 8t43 8q27 0 37 -41l53 -215q9 -37 9 -49q0 -41 -50 -41q-26 0 -55 71q-3 6 -10 23q-22 53 -34 71q-25 38 -58 50v-369q274 -193 274 -504q0 -377 -274 -399v-203q0 -24 -27 -24h-29 q-30 0 -30 24v203q-7 0 -20.5 2t-20.5 2q-17 0 -49.5 -8t-49.5 -8q-30 0 -41 69q-1 6 -4 23l-36 210q-3 17 -3 38q0 63 37 63q36 0 59 -75q6 -21 13 -40q24 -68 39 -93q30 -50 76 -58v549q-127 94 -183 176q-71 104 -71 240zM180 1126q0 -99 107 -165v315 q-107 -17 -107 -150zM373 131q110 18 110 205q0 162 -110 268v-473z" />
<glyph unicode="%" horiz-adv-x="1241" d="M68 915q0 192 25 293q46 187 183 187t183 -182q24 -95 24 -289q0 -185 -23 -262q-43 -144 -184 -144q-138 0 -183 141q-25 78 -25 256zM211 852q0 -111 3 -140q11 -108 60 -108q54 0 65 130q1 12 1 163v78l-1 190q-1 158 -65 158q-51 0 -62 -152q-1 -14 -1 -184v-135z M362 -14q0 7 2 11l406 1398q10 35 41 35h51q23 0 25 -19q0 -8 -2 -12l-406 -1399q-10 -33 -39 -33h-53q-23 0 -25 19zM758 397q0 195 24 293q46 187 183 187q136 0 183 -182q26 -100 26 -289q0 -188 -23 -262q-45 -144 -186 -144q-138 0 -183 141q-24 75 -24 256zM899 334 q0 -114 3 -140q12 -106 63 -106q53 0 64 129q1 12 1 162v78l-1 190q-1 158 -64 158q-54 0 -65 -171q-1 -15 -1 -204v-96z" />
<glyph unicode="&#x26;" horiz-adv-x="930" d="M59 383q0 323 267 526q-56 191 -56 279q0 115 57 198q65 95 175 95q108 0 172 -74q61 -70 61 -180q0 -103 -57 -177q-43 -56 -146 -122q45 -172 109 -363l49 228q50 231 148 231q39 0 41 -52l4 -89q1 -22 -32 -40q-40 -22 -59 -81q-5 -23 -24 -100l-68 -285l78 -217 q2 -5 6 -18q15 -46 45 -60q3 -1 13 -5q32 -13 32 -34q0 -43 -51 -43h-164q-43 0 -57 41l-33 94q-104 -153 -233 -153q-139 0 -215 138q-62 112 -62 263zM262 510q0 -324 133 -324q74 0 121 105q-25 83 -77 243l-81 250q-96 -84 -96 -274zM449 1296q0 -54 18 -131l33 -141 q96 59 96 158q0 62 -19 117q-26 75 -77 75t-51 -78z" />
<glyph unicode="'" horiz-adv-x="358" d="M84 1354q0 108 94 108q96 0 96 -108q0 -27 -2 -40l-73 -458h-39l-74 459q-2 12 -2 39z" />
<glyph unicode="(" horiz-adv-x="598" d="M135 598q0 410 211 713q34 49 83 99q69 71 101 71q25 0 25 -17q-22 -47 -76 -176q-106 -262 -106 -690q0 -362 96 -661q3 -10 47 -110q35 -80 39 -93q0 -19 -25 -19q-32 0 -101 72q-50 52 -83 100q-211 306 -211 711z" />
<glyph unicode=")" horiz-adv-x="598" d="M41 -266q0 -16 74 174q106 273 106 690q0 359 -96 664q-5 15 -45 110l-39 92q0 17 22 17q32 0 101 -71q54 -56 84 -99q211 -304 211 -713q0 -406 -211 -711q-33 -48 -83 -100q-69 -72 -102 -72q-22 0 -22 19z" />
<glyph unicode="*" horiz-adv-x="711" d="M63 1210l48 150l186 -80l-21 201h156l-22 -201l188 80l49 -150l-201 -36l138 -156l-127 -92l-103 178l-100 -178l-129 92l137 153z" />
<glyph unicode="+" horiz-adv-x="1706" d="M254 528v166h514v527h170v-527h514v-166h-514v-528h-170v528h-514z" />
<glyph unicode="," horiz-adv-x="360" d="M63 143q0 140 113 140q125 0 125 -191q0 -88 -49 -190q-58 -121 -137 -121q-17 0 -19 16q0 -16 5 -16q12 0 48 70q52 103 52 133q-1 6 -33 12q-39 7 -51 16q-54 39 -54 131z" />
<glyph unicode="-" horiz-adv-x="631" d="M78 399q0 9 6 31q2 5 2 6l31 103q9 31 29 38q11 5 51 5h219q21 0 63 17t47 17q27 0 27 -30q0 -10 -8 -37l-31 -103q-9 -30 -28 -38q-12 -5 -50 -5h-221q-22 0 -63 -16t-50 -16q-24 0 -24 28z" />
<glyph unicode="." horiz-adv-x="360" d="M66 135q0 146 114 146q115 0 115 -146q0 -145 -115 -145q-114 0 -114 145z" />
<glyph unicode="/" horiz-adv-x="440" d="M-25 -154l344 1593q9 42 50 42h51q29 0 29 -27v-8l-345 -1594q-9 -42 -49 -42h-53q-27 0 -27 26v10z" />
<glyph unicode="0" d="M72 649q0 315 29 462q63 319 257 319q195 0 260 -318q31 -152 31 -461q0 -304 -27 -421q-61 -263 -264 -263q-201 0 -260 263q-26 116 -26 419zM280 337q0 -251 80 -251q66 0 79 226q-1 -7 -1 266l-1 490q0 267 -77 267q-72 0 -79 -295q-3 -133 -1 -156q1 12 1 69z" />
<glyph unicode="1" d="M178 1231q0 24 37 53l158 123q32 25 53 25q29 0 29 -78v-1178q0 -46 6 -61q9 -23 43 -39q6 -2 19 -8q24 -11 24 -31q0 -37 -78 -37h-211q-78 0 -78 37q0 22 27 32q44 17 56 37q9 15 9 70v911q0 80 -27 97q-9 6 -28 12q-39 13 -39 35z" />
<glyph unicode="2" d="M66 1061q0 155 64 253q75 116 222 116q141 0 212 -109q61 -92 61 -240q0 -120 -43 -237q-30 -81 -107 -217q-33 -58 -70 -119q-145 -238 -169 -367h69q86 0 126 19q55 26 92 130q24 66 57 66q41 0 41 -41q0 -12 -3 -21l-36 -255q-6 -39 -54 -39h-407q-35 0 -35 39 q0 136 123 397q38 76 143 293q72 153 72 336q0 268 -96 268q-101 0 -101 -188q0 -137 68 -137q11 0 24 4q0 -5 1.5 -13.5t1.5 -13.5q0 -147 -111 -147q-145 0 -145 223z" />
<glyph unicode="3" d="M57 297q0 85 35 151q44 82 121 82q100 0 100 -98v-10q-73 -22 -73 -160q0 -178 79 -178q77 0 99 138q8 50 8 192q0 336 -111 336q-15 0 -48.5 -16.5t-45.5 -16.5q-43 0 -43 43q0 18 19 53l231 428h-82q-73 0 -115 -63q-4 -6 -21 -35q-31 -53 -58 -53q-37 0 -37 38 q0 15 4 35l33 169q15 75 51 75q2 0 9 -2q39 -10 89 -10h256q78 0 78 -35q0 -28 -31 -86l-213 -399q134 -2 201 -155q51 -116 51 -269q0 -484 -317 -484q-269 0 -269 330z" />
<glyph unicode="4" d="M68 369v129q0 51 12 82l305 786q25 64 70 64h32q78 0 78 -70v-920h47q41 0 41 -37v-38q0 -35 -35 -35h-53v-154q0 -83 58 -107q24 -10 24 -32q0 -37 -69 -37h-207q-68 0 -68 37q0 22 24 32q43 17 53 48q5 15 5 59v154h-274q-43 0 -43 39zM166 440h219v578z" />
<glyph unicode="5" d="M72 293q0 92 30 156q40 86 121 86q86 0 86 -107q-69 -12 -69 -158q0 -186 90 -186q72 0 92 149q6 45 6 197q0 361 -141 361q-25 0 -70.5 -25t-50.5 -25q-39 0 -39 66q0 28 2 47l45 438q7 72 23 87.5t86 15.5h123q75 0 132 10q11 2 13 2q22 0 22 -16v-9l-12 -127 q-4 -41 -45 -41h-221l-31 -299q54 33 111 33q154 0 221 -186q45 -125 45 -313q0 -482 -299 -482q-270 0 -270 326z" />
<glyph unicode="6" d="M74 563q0 361 29 514q67 353 288 353q112 0 172 -65.5t60 -178.5q0 -164 -134 -164q-92 0 -92 104q70 0 70 88q0 121 -80 121q-71 0 -89 -163q-5 -45 -5 -209v-142q45 43 115 43q245 0 245 -442q0 -455 -274 -455q-208 0 -272 211q-33 109 -33 385zM289 371 q0 -146 2 -165q13 -122 78 -122q62 0 75 117q2 18 2 159v95l-1 173q-13 132 -76 132q-67 0 -80 -143v-246z" />
<glyph unicode="7" d="M88 1120q0 14 8 43l53 190q15 54 48 54q3 0 8 -2q44 -10 114 -10h226q88 0 88 -27q0 -32 -12 -70l-25 -79q-154 -487 -178 -957q-2 -33 -5 -118v-75q-2 -53 -28 -63q-16 -6 -57 -6h-80q-40 0 -54 8q-20 11 -20 47q0 113 35 279q95 451 278 817l41 82h-147 q-128 0 -166 -49q-13 -16 -31 -48q-32 -55 -61 -55q-35 0 -35 39z" />
<glyph unicode="8" d="M61 317q0 267 189 406q-158 170 -158 373q0 134 72 229q79 105 209 105q118 0 186 -94q62 -84 62 -206q0 -179 -160 -311q186 -213 186 -465q0 -161 -69 -265q-80 -122 -234 -122q-142 0 -217 108q-66 94 -66 242zM221 330q0 -246 113 -246q112 0 112 217q0 241 -137 356 q-88 -90 -88 -327zM272 1165q0 -149 125 -284q68 53 68 227q0 227 -94 227q-99 0 -99 -170z" />
<glyph unicode="9" d="M63 973q0 457 289 457q201 0 262 -231q29 -110 29 -392q0 -343 -31 -500q-67 -340 -284 -340q-111 0 -172.5 65t-61.5 177q0 164 137 164q88 0 88 -105q-69 0 -69 -86q0 -100 80 -100q73 0 90 155q4 36 4 203v135q-49 -45 -115 -45q-141 0 -203 162q-43 112 -43 281z M272 924q0 -146 2 -164q14 -123 76 -123q64 0 77 136q1 11 1 177v99q0 144 -2 163q-13 121 -76 121t-76 -121q-2 -19 -2 -163v-125z" />
<glyph unicode=":" horiz-adv-x="408" d="M90 135q0 148 115 148q114 0 114 -148q0 -145 -114 -145q-115 0 -115 145zM90 840q0 145 115 145q114 0 114 -145q0 -146 -114 -146q-115 0 -115 146z" />
<glyph unicode=";" horiz-adv-x="408" d="M86 143q0 140 115 140q125 0 125 -191q0 -89 -49 -190q-59 -121 -138 -121q-20 0 -20 16q0 -16 6 -16q11 0 47 70q53 103 53 133q0 6 -34 12q-39 7 -52 16q-53 38 -53 131zM90 840q0 145 115 145q114 0 114 -145q0 -146 -114 -146q-115 0 -115 146z" />
<glyph unicode="&#x3c;" horiz-adv-x="1706" d="M264 530v160l1178 486v-185l-934 -381l934 -381v-182z" />
<glyph unicode="=" horiz-adv-x="1706" d="M254 322v165h1198v-165h-1198zM254 733v168h1198v-168h-1198z" />
<glyph unicode="&#x3e;" horiz-adv-x="1706" d="M264 47v182l934 381l-934 381v185l1178 -486v-160z" />
<glyph unicode="?" horiz-adv-x="688" d="M66 1208q0 123 66 196q69 77 190 77q139 0 217 -88q75 -84 75 -224q0 -110 -55 -200q-56 -70 -141 -201q-51 -105 -51 -287q0 -102 -41 -102q-50 0 -59 85q-1 5 -1 120q0 148 62 311l8 21q4 9 15 36q48 117 48 199q0 147 -71 147q-66 0 -66 -118q0 -99 47 -121 q-22 -68 -94 -68q-77 0 -117 74q-32 59 -32 143zM203 135q0 146 114 146q115 0 115 -146q0 -145 -115 -145q-114 0 -114 145z" />
<glyph unicode="@" horiz-adv-x="2019" d="M139 537q0 418 336 694q274 225 643 225q336 0 544 -174q222 -186 222 -516q0 -332 -227 -535q-123 -110 -262 -110q-201 0 -213 205q-124 -203 -303 -203q-144 0 -221 101q-70 91 -70 239q0 232 190 414q139 133 309 133q183 0 218 -187l51 170h172l-174 -622 q-15 -54 -15 -90q0 -103 82 -103q79 0 176 78q228 183 228 518q0 295 -204 464q-190 157 -491 157q-377 0 -615 -260q-232 -253 -232 -633q0 -342 239 -541q219 -182 549 -182q331 0 625 209l37 -47q-299 -224 -662 -224q-382 0 -622 181q-310 233 -310 639zM772 367 q0 -72 29 -122q35 -61 102 -61q121 0 223 174q123 209 123 414q0 74 -31 123q-37 59 -106 59q-122 0 -223 -192q-117 -222 -117 -395z" />
<glyph unicode="A" horiz-adv-x="834" d="M20 37q0 25 30 41q12 6 16 10q16 15 32 109l205 1181q14 78 74 78h65q40 0 55 -20q11 -14 19 -58l213 -1159q19 -102 37 -125q6 -6 13 -12q26 -22 26 -43q0 -39 -55 -39h-218q-75 0 -75 41q0 5 22.5 34.5t22.5 49.5v12l-11 79q-6 40 -71 40h-74q-62 0 -69 -40l-13 -79 v-12q0 -20 23.5 -49.5t23.5 -34.5q0 -41 -78 -41h-155q-58 0 -58 37zM299 436q0 -45 74 -45q73 0 73 47q0 18 -2 36l-55 505q-2 22 -12 22t-13 -23l-61 -499q0 -3 -1 -6q-3 -27 -3 -37z" />
<glyph unicode="B" horiz-adv-x="913" d="M84 37q0 1 24.5 35t24.5 63v1186q0 29 -24.5 64t-24.5 34q0 38 71 46q9 1 97 1h31q204 0 323 -79q142 -93 142 -287q0 -182 -177 -266q269 -148 269 -437q0 -409 -471 -409h-99q-88 0 -106 2q-80 9 -80 47zM375 221q0 -62 5 -79q12 -42 56 -42q76 0 113 107q26 75 26 168 q0 118 -29 228q-43 163 -128 163q-43 0 -43 -82v-463zM375 1020q0 -113 59 -113q92 0 92 205q0 65 -25 140q-33 98 -85 98q-41 0 -41 -105v-225z" />
<glyph unicode="C" horiz-adv-x="797" d="M61 551q0 300 70 551q106 379 330 379q19 0 55 -12.5t51 -12.5q5 0 30 13.5t38 13.5q50 0 61 -86l31 -236q4 -30 4 -76q0 -71 -57 -71q-40 0 -84 131q-3 9 -13 40q-55 169 -108 169q-133 0 -133 -678q0 -233 7 -294q26 -226 130 -226q127 0 127 286v78q0 80 55 80 q93 0 93 -254q0 -167 -73 -263q-81 -108 -243 -108q-200 0 -297 200q-74 153 -74 376z" />
<glyph unicode="D" horiz-adv-x="905" d="M86 37q0 1 23.5 35t23.5 63v1186q0 29 -23.5 64t-23.5 34q0 43 119 43h67q306 0 455 -282q117 -222 117 -557q0 -307 -110 -458q-127 -177 -423 -177q-25 0 -75.5 2t-75.5 2q-74 0 -74 45zM379 268q0 -80 1 -87q8 -54 48 -54q147 0 147 506q0 169 -27 370 q-41 306 -122 306q-47 0 -47 -146v-895z" />
<glyph unicode="E" horiz-adv-x="854" d="M84 39l24 35q25 34 25 63v1182q0 29 -23 63l-24 35q0 39 78 39h346q25 0 73.5 12.5t73.5 12.5q32 0 49 -57l3 -9l55 -199q18 -65 18 -104q0 -53 -47 -53q-39 0 -92 87q-32 53 -45 71q-84 118 -162 118q-57 0 -57 -86v-235q0 -111 49 -111q26 0 58.5 47t64.5 47 q33 0 53 -51l94 -239q17 -43 17 -68q0 -47 -49 -47q-26 0 -52 29l-20 24q-99 117 -160 117q-55 0 -55 -92v-406q0 -67 6 -85q13 -38 64 -38q89 0 174 109q20 26 53 75q52 78 84 78q47 0 47 -53q0 -16 -4 -31l-68 -262q-22 -86 -59 -86q-6 1 -21 6q-67 23 -135 23h-356 q-80 0 -80 39z" />
<glyph unicode="F" horiz-adv-x="797" d="M84 39l24 35q25 34 25 63v1182q0 29 -23 63l-24 35q0 39 78 39h360q25 0 74 12.5t74 12.5q33 0 52 -62q1 -3 1 -4l53 -198q19 -71 19 -105q0 -53 -45 -53q-40 0 -92 85q-25 40 -46 70q-87 121 -174 121q-61 0 -61 -86v-258q0 -108 49 -108q36 0 59 45q25 49 64 49 q33 0 53 -51l94 -240q17 -43 17 -68q0 -49 -49 -49q-28 0 -52 29q-6 7 -23 28q-96 115 -157 115q-55 0 -55 -94v-510q0 -30 29.5 -63.5t29.5 -34.5q0 -39 -80 -39h-194q-80 0 -80 39z" />
<glyph unicode="G" horiz-adv-x="899" d="M59 547q0 312 73 561q109 373 349 373q21 0 61 -10.5t60 -10.5q12 0 39.5 10.5t40.5 10.5q42 0 61 -107l41 -225q9 -49 9 -82q0 -68 -56 -68q-47 0 -98 126q-21 55 -67 153q-44 76 -95 76q-143 0 -143 -678q0 -221 11 -301q31 -225 144 -225q62 0 77 65q5 22 5 117v284 q0 30 -23.5 63.5l-23.5 33.5q0 39 78 39h154q80 0 80 -39l-25 -33.5t-25 -63.5v-428q0 -32 27 -77t27 -50q0 -50 -136 -72q-86 -14 -172 -14q-473 0 -473 572z" />
<glyph unicode="H" horiz-adv-x="930" d="M84 39l24 35q25 34 25 63v1182q0 29 -23 63l-24 35q0 39 78 39h184q78 0 78 -39l-24 -35q-23 -34 -23 -63v-408q0 -49 49 -49h74q47 0 47 49v408q0 29 -23 63l-24 35q0 39 80 39h182q80 0 80 -39l-24 -35q-23 -34 -23 -63v-1182q0 -29 23 -63l24 -35q0 -39 -80 -39h-182 q-80 0 -80 39l24 35q23 34 23 63v535q0 49 -47 49h-74q-49 0 -49 -49v-535q0 -29 23 -63l24 -35q0 -39 -78 -39h-184q-80 0 -80 39z" />
<glyph unicode="I" horiz-adv-x="512" d="M84 39l24 35q25 34 25 63v1182q0 29 -23 63l-24 35q0 39 78 39h184q78 0 78 -39l-24 -35q-23 -34 -23 -63v-1182q0 -29 23 -63l24 -35q0 -39 -78 -39h-184q-80 0 -80 39z" />
<glyph unicode="J" horiz-adv-x="739" d="M-2 324q0 270 180 270q55 0 87 -41q30 -37 30 -94q-1 -5 -6 -41q-12 8 -21 8q-73 0 -73 -121q0 -180 94 -180q82 0 82 170v1024q0 42 -27 61q-33 17 -33 37q0 39 80 39h195q78 0 78 -39l-24 -34.5t-24 -63.5v-873q0 -245 -41 -319q-84 -152 -264 -152q-313 0 -313 349z " />
<glyph unicode="K" horiz-adv-x="877" d="M84 39l24 35q25 34 25 63v1182q0 29 -23 63l-24 35q0 39 78 39h184q78 0 78 -39l-24 -35q-23 -34 -23 -63v-301l178 268q25 38 25 68q0 7 -25 31.5t-25 37.5q0 33 76 33h152q59 0 59 -37q0 -6 -53 -63q-59 -64 -66 -74l-106 -154l209 -918q2 -11 6 -30q13 -71 43 -92 q2 -2 7 -5q28 -21 28 -46q0 -37 -53 -37h-238q-66 0 -66 39q0 6 26 36t26 52q0 20 -23 131l-131 635l-49 -64v-692q0 -29 23 -63l24 -35q0 -39 -78 -39h-184q-80 0 -80 39z" />
<glyph unicode="L" horiz-adv-x="838" d="M84 39l24 35q25 34 25 63v1182q0 29 -23 63l-24 35q0 39 78 39h205q71 0 71 -35q0 -20 -29 -39q-1 0 -3 -2q-29 -20 -29 -61v-1055q0 -67 6 -85q13 -38 64 -38q96 0 172 121q18 28 50 90q48 92 87 92q47 0 47 -53q0 -8 -3 -27q-1 -4 -1 -6l-66 -301q-19 -86 -59 -86 q-6 1 -21 6q-67 23 -135 23h-356q-80 0 -80 39z" />
<glyph unicode="M" horiz-adv-x="1038" d="M25 41q0 14 26 33q5 4 12 10q31 29 31 119v4l74 1118q2 24 -22.5 56.5t-24.5 35.5q0 39 78 39h149q78 0 78 -39q0 -6 -24.5 -35.5t-24.5 -48.5q0 -8 2 -14l145 -655l154 669q0 17 -23.5 47t-23.5 37q0 39 78 39h133q80 0 80 -39q0 -2 -24 -34.5t-24 -57.5v-6l70 -1108 q1 -7 2 -25q3 -71 37 -106q2 -3 10 -9q21 -17 21 -38q0 -33 -56 -33h-223q-55 0 -55 35q0 17 23 35q3 2 10 8q22 20 22 47q0 7 -2 49l-35 735l-163 -739q-13 -61 -41 -61t-41 58l-170 742l-39 -747q-2 -43 32 -86l31 -39q0 -37 -71 -37h-152q-59 0 -59 41z" />
<glyph unicode="N" horiz-adv-x="887" d="M84 39l24 35q25 34 25 63v1182q0 29 -23 63l-24 35q0 39 78 39h123q65 0 84 -51l227 -614v528q0 29 -24 63l-25 35q0 39 80 39h98q80 0 80 -39l-25 -35q-24 -34 -24 -63v-1272q0 -72 -37 -72h-51q-64 0 -64 92v1v15q0 126 -51 257l-260 666v-869q0 -29 23 -63l24 -35 q0 -39 -80 -39h-98q-80 0 -80 39z" />
<glyph unicode="O" horiz-adv-x="895" d="M61 598q0 294 66 528q100 355 322 355q225 0 324 -364q63 -232 63 -537q0 -236 -76 -395q-100 -210 -311 -210q-216 0 -315 217q-73 160 -73 406zM336 743l1 -336q0 -134 33 -210q30 -70 79 -70q91 0 110 280q2 29 2 336q0 282 -4 335q-21 280 -108 280q-89 0 -110 -280 q-3 -38 -3 -230v-105z" />
<glyph unicode="P" horiz-adv-x="854" d="M84 39l24 35q25 34 25 63v1182q0 29 -23 63l-24 35q0 51 205 51q222 0 348 -131q164 -171 164 -477q0 -171 -68 -285q-80 -133 -239 -153q-17 -2 -46 -4q-79 -5 -79 -72v-209q0 -30 28.5 -63.5t28.5 -34.5q0 -39 -76 -39h-188q-80 0 -80 39zM371 721q0 -162 71 -162 q113 0 113 311q0 119 -25 254q-37 201 -110 201q-49 0 -49 -115v-489z" />
<glyph unicode="Q" horiz-adv-x="895" d="M61 600q0 294 66 526q101 355 322 355q225 0 324 -364q63 -232 63 -537q0 -435 -238 -572q20 -121 120 -147q5 -1 20 -5q44 -11 44 -42q0 -30 -43 -41l-129 -33q-23 -6 -49 -6q-59 0 -75 102q-2 13 -7 144q-1 -1 -4 -1q-25 -4 -37 -4q-208 0 -305 223q-72 165 -72 402z M326 743q0 -296 3 -336q21 -280 113 -280q9 0 29 5v22q0 159 -90 159q13 54 70 54q82 0 94 -170q24 89 24 546q0 273 -5 336q-22 279 -115 279q-96 0 -119 -278q-4 -48 -4 -337z" />
<glyph unicode="R" horiz-adv-x="889" d="M84 39l24 35q25 34 25 63v1182q0 30 -24.5 65t-24.5 33q0 40 87 49q19 2 114 2q259 0 400 -150q138 -146 138 -407q0 -254 -166 -311l101 -420q0 -2 2 -10q12 -54 28 -76q4 -6 18 -20q23 -24 23 -41q0 -33 -63 -33h-186q-74 0 -74 37q0 11 23.5 37.5t23.5 36.5q0 8 -8 46 l-82 386h-92v-406q0 -29 23 -63l24 -35q0 -39 -80 -39h-174q-80 0 -80 39zM371 793q0 -65 7 -90q14 -50 62 -50q138 0 138 258q0 111 -30 242q-42 184 -120 184q-57 0 -57 -112v-432z" />
<glyph unicode="S" horiz-adv-x="801" d="M55 406q0 73 51 73q44 0 91 -131q36 -101 51 -128q43 -79 102 -79q121 0 121 238q0 96 -16 145q-35 108 -155 214q-111 95 -160 182q-52 92 -52 213q0 139 75 238q82 110 216 110q18 0 53.5 -11.5t48.5 -11.5q10 0 34 8.5t36 8.5q33 0 49 -91l29 -170q4 -23 4 -69 q0 -72 -55 -72q-38 0 -65 80q-11 34 -19 53q-57 144 -121 144q-80 0 -80 -131q0 -113 94 -195q20 -17 68 -54q115 -87 163 -153q117 -159 117 -364q0 -189 -80 -321q-95 -157 -274 -157q-34 0 -82 18l-51 19q-13 0 -41.5 -12t-42.5 -12q-44 0 -60 94l-45 270q-4 24 -4 54z " />
<glyph unicode="T" horiz-adv-x="858" d="M27 1079q0 34 6 79l35 260q9 65 51 65q4 -1 12 -4q55 -23 133 -23h328q78 0 133 23q9 4 12 4q42 0 51 -65l35 -260q6 -45 6 -79q0 -57 -41 -57q-38 0 -96 148q-4 9 -12 29q-52 138 -88 138q-41 0 -41 -69v-1131q0 -30 27.5 -63.5t27.5 -34.5q0 -39 -69 -39h-220 q-67 0 -67 39q0 1 27.5 34.5t27.5 63.5v1131q0 69 -41 69q-36 0 -86 -132l-8 -21l-6 -15q-59 -147 -96 -147q-41 0 -41 57z" />
<glyph unicode="U" horiz-adv-x="877" d="M80 1417q0 39 80 39h184q78 0 78 -39q0 2 -23 -34.5t-24 -63.5l-25 -983v-10q0 -166 129 -166q78 0 105 63q18 42 18 133v15l-18 947q-1 27 -24 63.5t-23 35.5q0 39 77 39h99q80 0 80 -39q0 -1 -24 -33.5t-24 -60.5v-4l19 -979q0 -181 -62 -266q-73 -99 -247 -99 q-195 0 -273 86q-73 82 -73 279q0 40 2 145l16 838q1 27 -23 60t-24 34z" />
<glyph unicode="V" horiz-adv-x="764" d="M-12 1417q0 39 55 39h217q76 0 76 -41q0 -5 -22.5 -34.5t-22.5 -49.5v-12l119 -776l118 786q0 21 -23.5 51t-23.5 35q0 41 78 41h156q57 0 57 -39q0 -24 -28 -38q-12 -6 -16 -10q-18 -18 -34 -112l-205 -1181q-7 -41 -19 -56q-16 -20 -54 -20h-64q-62 0 -76 76l-213 1159 q-10 56 -36 127q-2 2 -15 14q-24 21 -24 41z" />
<glyph unicode="W" horiz-adv-x="999" d="M6 1417q0 39 55 39h183q78 0 78 -41q0 -3 -24 -33t-24 -53v-10l91 -815l79 655q9 76 68 76h37q57 0 65 -75l74 -656l90 825q0 21 -22.5 51t-22.5 35q0 41 78 41h123q57 0 57 -39q0 -24 -27 -38q-11 -7 -16 -11q-23 -23 -33 -111l-131 -1182q-8 -75 -75 -75h-25 q-65 0 -76 76l-104 696l-94 -696q-10 -76 -74 -76h-31q-64 0 -74 76l-149 1159q-13 98 -37 127q-5 6 -14 14q-25 22 -25 41z" />
<glyph unicode="X" horiz-adv-x="778" d="M-18 33q0 31 31 48q8 4 12 7q26 21 51 98l188 576l-153 457q-2 5 -6 18q-33 101 -53 124q-7 8 -14 14q-26 23 -26 42q0 39 56 39h223q78 0 78 -41q0 -6 -25 -35t-25 -45q0 -8 3 -17l112 -327l92 327q2 7 2 15q0 18 -24.5 47.5t-24.5 34.5q0 41 78 41h156q57 0 57 -37 q0 -26 -32 -43q-9 -5 -13 -8q-26 -20 -49 -98l-158 -529l172 -503q3 -10 13 -38q27 -83 46 -105q5 -6 15 -14q27 -22 27 -42q0 -39 -56 -39h-221q-78 0 -78 41q0 6 24.5 36t24.5 46q0 7 -2 15l-143 411l-115 -412q-2 -7 -2 -14q0 -17 23.5 -47t23.5 -35q0 -41 -75 -41h-156 q-57 0 -57 33z" />
<glyph unicode="Y" horiz-adv-x="711" d="M-35 1417q0 39 55 39h207q78 0 78 -41q0 -5 -24.5 -34.5t-24.5 -47.5q0 -7 2 -14l137 -492l101 492q0 2 1 6t1 6q0 19 -23.5 48.5t-23.5 35.5q0 41 75 41h140q57 0 57 -39q0 -9 -29.5 -41t-34.5 -51l-178 -721v-467q0 -30 28 -63.5t28 -34.5q0 -39 -70 -39h-219 q-68 0 -68 39q0 1 28 34.5t28 63.5v443l-209 735q-4 14 -34 56q-28 39 -28 46z" />
<glyph unicode="Z" horiz-adv-x="801" d="M35 35q0 23 15 63q1 1 3 8l444 1229q-10 2 -36 2q-119 0 -201 -108q-23 -30 -55 -91q-42 -79 -78 -79q-43 0 -43 55q0 32 14 84l58 215q18 68 59 68q24 0 69.5 -12.5t69.5 -12.5h305q93 0 93 -43q0 -22 -19 -74l-440 -1222q3 0 6 -1q34 -3 49 -3q131 0 213 118 q24 35 56 93q48 88 83 88q45 0 45 -50q0 -15 -2 -23l-73 -291q-19 -77 -64 -77q-5 1 -16 5q-63 24 -139 24h-328q-49 0 -55 1q-33 6 -33 34z" />
<glyph unicode="[" horiz-adv-x="598" d="M172 -248v1702h393v-96h-192v-1510h192v-96h-393z" />
<glyph unicode="\" horiz-adv-x="440" d="M-25 1454q0 27 27 27h53q41 0 50 -42l344 -1601q0 -28 -29 -28h-51q-41 0 -50 43z" />
<glyph unicode="]" horiz-adv-x="598" d="M37 -152h190v1510h-190v96h391v-1702h-391v96z" />
<glyph unicode="^" horiz-adv-x="2048" d="M412 897l503 565h215l502 -565h-104l-506 397l-506 -397h-104z" />
<glyph unicode="_" horiz-adv-x="1024" d="M0 -311h1024v-172h-1024v172z" />
<glyph unicode="`" horiz-adv-x="1024" d="M270 1354q0 18 35 18h121q20 0 37 -29l119 -200q12 -20 12 -31q0 -14 -29 -14h-43q-23 0 -43 18l-182 197q-27 29 -27 41z" />
<glyph unicode="a" horiz-adv-x="688" d="M61 233q0 276 314 414l-4 64q-10 168 -90 168q-33 0 -62 -25q55 -33 55 -94q0 -94 -94 -94q-100 0 -100 122q0 95 70 148q63 49 161 49q138 0 199 -82q49 -68 57 -213l25 -478q4 -75 45 -75q16 0 26 2q3 -9 3 -30q0 -129 -115 -129q-107 0 -125 141q-64 -141 -172 -141 q-92 0 -146 84q-47 72 -47 169zM246 307q0 -174 76 -174q69 0 69 117v22l-10 269q-1 18 -12 18q-52 0 -91 -104q-32 -86 -32 -148z" />
<glyph unicode="b" horiz-adv-x="674" d="M43 1339q0 29 49 56l133 73q23 13 37 13h2q25 -1 25 -41v-557q46 104 112 104q122 0 182 -248q40 -165 40 -340q0 -419 -213 -419q-112 0 -174 163l-56 -110q-26 -51 -55 -51q-33 0 -33 106v1096q0 95 -12 108q-3 3 -10 8q-27 18 -27 39zM293 356q0 -151 72 -151 q84 0 84 327q0 320 -78 320t-78 -309v-187z" />
<glyph unicode="c" horiz-adv-x="575" d="M51 410q0 192 58 352q81 223 239 223q85 0 142 -63t57 -148q0 -30 -31 -57l-88 -76q-14 -12 -29 -12q-26 0 -26 26q0 10 2 30t2 30q0 174 -74 174q-98 0 -98 -281q0 -129 27 -238q42 -169 133 -169q58 0 77 71q1 3 6 26q12 54 50 54q49 0 49 -106q0 -118 -54 -188 q-60 -78 -174 -78q-144 0 -215 152q-53 114 -53 278z" />
<glyph unicode="d" horiz-adv-x="688" d="M51 360q0 227 66 435q61 192 155 192q67 0 113 -104v301q0 94 -16 108q-6 5 -19 12q-30 16 -31 35q0 18 52 48l14 8l135 73q23 13 37 13h2q25 -1 25 -41v-1161q0 -93 12 -109q3 -4 11 -10q24 -18 24 -37q0 -23 -42 -50q-3 -2 -5 -3l-123 -76q-19 -12 -39 -12 q-25 0 -25 43v116q-64 -161 -166 -161q-101 0 -148 150q-32 102 -32 230zM227 516q0 -311 84 -311q59 0 71 151q1 13 1 187q0 309 -78 309t-78 -336z" />
<glyph unicode="e" horiz-adv-x="590" d="M43 430q0 188 57 342q79 213 236 213q115 0 171 -139q42 -104 42 -236q0 -38 -8 -50q-9 -15 -42 -28l-39 -15q-107 -41 -145 -64l-84 -50q43 -215 129 -215q45 0 64 31q8 13 17 42q14 44 42 44q45 0 45 -72q0 -109 -52 -177q-57 -76 -163 -76q-145 0 -216 163 q-54 124 -54 287zM207 659q0 -63 10 -159q139 56 139 184q0 199 -80 199q-69 0 -69 -224z" />
<glyph unicode="f" horiz-adv-x="451" d="M20 901v29q0 33 33 33h70q-47 118 -47 225q0 121 52 199q60 92 175 92q74 0 120 -44t46 -118q0 -113 -94 -113q-70 0 -84 60q-2 6 -6 25q-13 61 -35 61h-1q-40 0 -40 -78q0 -105 102 -309h117q35 0 35 -33v-29q0 -33 -35 -33h-106v-733q0 -44 43 -104q-1 -31 -62 -31 h-160q-63 0 -63 31q0 -26 21.5 29t21.5 75v733h-70q-33 0 -33 33z" />
<glyph unicode="g" horiz-adv-x="696" d="M68 -127q0 107 122 182q-116 56 -116 152q0 97 131 155q-131 97 -131 285q0 141 67 233q75 105 211 105h18q10 223 154 223q107 0 107 -94q0 -84 -78 -84q-11 0 -34 3t-34 3q-51 0 -57 -65q98 -23 150 -121q45 -83 45 -193q0 -271 -219 -325q-23 -6 -66 -10 q-105 -11 -105 -58q0 -29 82 -48q34 -8 58 -15q305 -91 305 -291q0 -125 -95 -196q-85 -64 -214 -64q-114 0 -200 53q-101 62 -101 170zM229 -106q0 -64 40.5 -101t105.5 -37q121 0 121 105q0 73 -82 117q-43 23 -146 49q-39 -74 -39 -133zM270 688q0 -268 84 -268 q72 0 72 219q0 266 -86 266q-70 0 -70 -217z" />
<glyph unicode="h" horiz-adv-x="735" d="M55 1339q0 31 47 56l136 73q24 13 38 13q25 0 25 -41v-561q48 106 121 106q126 0 182 -285q23 -120 39 -374l8 -131q0 -2 1 -11q5 -77 15 -97q2 -5 21 -27q14 -17 14 -29q0 -31 -61 -31h-162q-61 0 -61 31l20 35q21 35 21 63v6l-4 111q-6 153 -26 311q-34 262 -93 262 q-35 0 -35 -145v-539q0 -35 41 -104q0 -31 -59 -31h-160q-63 0 -64 31q0 -26 21.5 29.5t21.5 74.5v1049q0 94 -12 108q-2 3 -9 8q-26 18 -26 39z" />
<glyph unicode="i" horiz-adv-x="412" d="M59 838q0 25 50 53l135 76q21 12 37 12q26 0 26 -43v-801q0 -42 43 -104q0 -31 -63 -31h-160q-63 0 -64 31q0 -27 23 28.5t23 75.5v545q0 94 -13 111q-3 2 -11 8q-26 18 -26 39zM72 1290q0 64 51.5 119t114.5 55q88 0 88 -92q0 -61 -54.5 -114.5t-115.5 -53.5 q-84 0 -84 86z" />
<glyph unicode="j" horiz-adv-x="408" d="M16 -174q0 15 5 53q14 -12 28 -12q60 0 60 190v623q0 96 -16 110q-5 5 -17 11q-31 17 -31 35q0 19 64 55l135 76q21 12 37 12q26 0 26 -43v-930q0 -148 -18 -209q-34 -116 -146 -116q-127 0 -127 145zM72 1290q0 64 51.5 119t114.5 55q88 0 88 -92q0 -61 -54.5 -114.5 t-115.5 -53.5q-84 0 -84 86z" />
<glyph unicode="k" horiz-adv-x="692" d="M57 1339q0 31 47 56l136 73q24 13 39 13q24 0 24 -41v-848l131 223q15 26 15 45q0 16 -17.5 39.5t-17.5 24.5q0 39 65 39h146q55 0 55 -33q0 -16 -35 -47q-43 -38 -49 -47l-100 -148l125 -522q5 -21 38 -68q29 -41 29 -69q0 -29 -63 -29h-113q-45 0 -55 47q0 3 -2 10 l-95 424l-57 -84v-262q0 -42 43 -104q0 -31 -61 -31h-160q-63 0 -64 31q0 -26 21.5 29.5t21.5 74.5v1049q0 94 -12 108q-2 3 -9 8q-26 18 -26 39z" />
<glyph unicode="l" horiz-adv-x="410" d="M57 1339q0 31 47 56l136 73q24 13 39 13q24 0 24 -41v-1305q0 -42 43 -104q0 -31 -61 -31h-160q-63 0 -64 31q0 -26 21.5 29.5t21.5 74.5v1049q0 94 -12 108q-2 3 -9 8q-26 18 -26 39z" />
<glyph unicode="m" horiz-adv-x="1059" d="M59 838q0 22 41 48q5 3 9 5l119 76q1 1 4 3q25 17 34 17q25 0 25 -51v-86q102 137 194 137q87 0 127 -129q59 129 144 129q91 0 149 -156q33 -88 58 -505l8 -131q1 -8 2 -31q4 -59 12 -78q3 -4 21 -26q14 -17 14 -29q0 -31 -59 -31h-164q-62 0 -62 31q0 -3 22 34t21 70 l-2 128q-9 556 -106 556q-37 0 -45 -53q-2 -13 -2 -80v-551q0 -35 41 -104q0 -31 -60 -31h-153q-62 0 -62 31q0 -26 21.5 29t21.5 75v486q0 107 -1 115q-10 83 -56 83q-78 0 -78 -188v-496q0 -37 41 -104q0 -31 -59 -31h-152q-63 0 -64 31q0 -27 23 28.5t23 75.5v545 q0 93 -13 119q-37 7 -37 39z" />
<glyph unicode="n" horiz-adv-x="739" d="M59 838q0 22 41 48q6 3 9 5l118 76q28 18 39 18q25 0 25 -49v-74q68 123 135 123q128 0 184 -284q23 -119 39 -375l8 -131q1 -8 3 -31q5 -62 12 -78q3 -4 21 -26q14 -17 14 -29q0 -31 -60 -31h-164q-61 0 -61 31l22 35q21 35 21 65v4l-4 111q-6 161 -26 312 q-35 261 -95 261q-33 0 -33 -145v-539q0 -35 21 -69l20 -35q0 -31 -61 -31h-160q-63 0 -64 31q0 -27 23 28.5t23 75.5v545q0 93 -13 117l-2 1q-35 13 -35 40z" />
<glyph unicode="o" horiz-adv-x="627" d="M53 455q0 161 52 318q71 214 200 214q139 0 214 -205q56 -153 56 -319q0 -161 -47 -295q-66 -188 -198 -188q-146 0 -221 176q-56 132 -56 299zM178 717q0 -108 64 -303q75 -228 155 -228q54 0 54 70q0 118 -86 330q-84 207 -140 207q-47 0 -47 -76z" />
<glyph unicode="p" horiz-adv-x="682" d="M53 838q0 27 47 53l136 76q34 19 38 20q25 0 25 -51v-57q38 108 109 108q119 0 182 -252q43 -172 43 -342q0 -150 -32 -253q-50 -160 -167 -160q-79 0 -135 106v-287q0 -31 20.5 -70t20.5 -36q0 -29 -59 -29h-160q-64 0 -64 29q0 -27 21.5 29.5t21.5 76.5v881 q0 95 -12 119q-35 7 -35 39zM303 356q0 -151 70 -151q84 0 84 299q0 348 -78 348q-76 0 -76 -309v-187z" />
<glyph unicode="q" horiz-adv-x="674" d="M51 391q0 182 55 354q77 240 220 240q89 0 145 -104l23 57q19 47 55 47q35 0 35 -104v-1082q0 -42 43 -106q0 -29 -64 -29h-160q-59 0 -59 29q0 -3 20.5 36t20.5 70v287q-54 -106 -135 -106q-117 0 -167 159q-32 102 -32 252zM227 504q0 -299 84 -299q70 0 70 151l-1 360 q-1 138 -67 138q-86 0 -86 -350z" />
<glyph unicode="r" horiz-adv-x="557" d="M59 838q0 22 41 48q6 3 9 5l118 76q28 18 39 18q25 0 25 -49v-197q55 110 83 150q67 96 132 96q69 0 69 -80v-18l-14 -171q-3 -40 -43 -40q-25 0 -39 47q-13 43 -47 43q-72 0 -105 -190q-20 -115 -20 -242v-199q0 -41 53 -104q0 -31 -71 -31h-162q-63 0 -64 31 q0 -27 23 28.5t23 75.5v545q0 93 -13 117l-2 1q-35 13 -35 40z" />
<glyph unicode="s" horiz-adv-x="606" d="M43 752q0 104 61 169.5t164 65.5q15 0 45 -7t45 -7q10 0 30 6t30 6q25 0 43 -72l35 -137q0 -1 1 -5q3 -14 3 -21q0 -43 -41 -43q-26 0 -60 55q-3 6 -16 27q-51 85 -92 85q-76 0 -76 -83q0 -67 117 -149q5 -3 18 -13q114 -80 158 -144q55 -80 55 -202q0 -130 -63 -213 q-69 -93 -195 -93q-20 0 -58 11.5t-54 11.5q-11 0 -32 -7t-30 -7q-38 0 -49 67l-29 175q-2 12 -2 22q0 43 37 43q27 0 48 -47q9 -21 16 -34q60 -116 120 -116q93 0 93 131q0 78 -46 140q-30 41 -114.5 109t-115.5 115q-46 70 -46 161z" />
<glyph unicode="t" horiz-adv-x="442" d="M25 897q0 27 43 73q56 60 63 72l58 145q43 107 71 107q30 0 38 -18q5 -10 5 -47l2 -266h117q33 0 33 -33v-29q0 -33 -33 -33h-121l-12 -589v-13q0 -137 63 -137q14 0 42.5 14.5t35.5 14.5q29 0 29 -39q0 -65 -65 -105q-56 -34 -126 -34q-116 0 -154 77q-26 53 -26 185 q0 -1 2 77l14 549h-45q-34 0 -34 29z" />
<glyph unicode="u" horiz-adv-x="733" d="M51 838q0 25 47 53l127 76q20 12 39 12q25 0 25 -43v-666q0 -123 59 -123q90 0 90 207v326q0 95 -12 111q-3 2 -9 7q-26 18 -26 40q0 25 47 53l127 76q20 12 39 12q25 0 25 -43v-723q0 -72 24 -92q4 -3 11 -7q24 -13 24 -34q0 -24 -41 -39l-115 -41q-43 -20 -59 -20 q-35 0 -35 86v63q-70 -149 -178 -149q-111 0 -145 109q-17 55 -17 202v389q0 96 -12 111q-3 3 -9 7q-26 18 -26 40z" />
<glyph unicode="v" horiz-adv-x="598" d="M-12 932q0 33 59 33h176q60 0 60 -31q0 -5 -21.5 -35.5t-21.5 -50.5q0 -13 2 -19l98 -542l72 506q4 28 4 49q0 35 -39 90q0 33 61 33h97q59 0 59 -31q0 -1 -24 -44.5t-27 -59.5l-127 -778q-8 -52 -49 -52h-101q-42 0 -53 51l-154 721q-6 26 -40 80q-31 49 -31 80z" />
<glyph unicode="w" horiz-adv-x="930" d="M-14 932q0 33 59 33h166q59 0 59 -31q0 -5 -21.5 -35.5t-21.5 -50.5q0 -12 2 -18l95 -523l82 523q0 3 1 9t1 9q0 18 -16.5 49t-16.5 37q0 31 47 31h143q49 0 49 -31q0 -5 -17 -36t-17 -50q0 -13 2 -19l94 -522l69 485q3 21 3 50q0 35 -37 90q0 33 59 33h98q62 0 62 -31 l-25 -43q-25 -43 -28 -62l-142 -778q-9 -51 -49 -51h-53q-41 0 -51 51l-115 563l-82 -563q-7 -51 -49 -51h-55q-40 0 -52 52l-172 720q-5 19 -39 87q-32 65 -32 73z" />
<glyph unicode="x" horiz-adv-x="598" d="M-2 932q0 33 59 33h166q60 0 60 -31q0 -10 -19.5 -34.5t-19.5 -39.5q0 -7 3 -19q0 -2 1 -3l63 -172l54 146q8 22 8 42q0 18 -19.5 46.5t-19.5 31.5q0 33 61 33h111q61 0 61 -31q0 -6 -28 -44q-31 -42 -35 -54l-119 -336l135 -320q6 -14 90 -149q0 -31 -59 -31h-164 q-61 0 -61 31q0 9 19.5 33.5t19.5 39.5q-1 7 -5 23l-81 209l-68 -182q-6 -16 -6 -43q0 -19 19.5 -48.5t19.5 -31.5q0 -31 -62 -31h-123q-59 0 -59 31q0 9 26 44q30 40 35 54l142 375l-115 278q-6 14 -49 83q-41 66 -41 67z" />
<glyph unicode="y" horiz-adv-x="571" d="M-10 932q0 33 59 33h164q61 0 61 -31q0 -5 -21.5 -35.5t-21.5 -50.5q0 -12 2 -18l80 -422l70 385q4 14 4 49t-39 90q0 33 62 33h98q59 0 59 -31l-24 -43q-23 -42 -27 -62l-166 -901q-24 -129 -56 -186q-52 -92 -157 -92q-55 0 -79 18.5t-33 71.5l-19 109q-2 11 -2 24 q0 49 35 49q10 0 48 -42t63 -42q88 0 88 187v12l-177 735q-18 75 -43 115z" />
<glyph unicode="z" horiz-adv-x="586" d="M8 25q0 25 12 55l316 780q-6 0 -17.5 1t-17.5 1q-77 0 -123 -65q-14 -19 -31 -57q-25 -54 -53 -54q-35 0 -35 45q0 24 4 41l35 150q15 63 45 63l12 -4q44 -18 107 -18h232q67 0 67 -37q0 -24 -14 -58l-311 -765q7 -3 30 -3q81 0 146 86q13 17 36 60q37 69 72 69 q41 0 41 -43q0 -19 -10 -61l-43 -180q-15 -62 -49 -62q-13 0 -59 15.5t-70 15.5h-262q-60 0 -60 25z" />
<glyph unicode="{" horiz-adv-x="1024" d="M178 602v68q157 15 215 78t58 221v200q0 208 98 283q84 64 301 64v-57q-137 -2 -184 -66q-39 -54 -39 -199v-137q0 -198 -40 -277q-55 -109 -225 -145q170 -36 225 -145q40 -79 40 -277v-137q0 -145 39 -198q47 -63 184 -65v-57h-10q-213 0 -295 66q-94 75 -94 280v201 q0 156 -59 221t-214 78z" />
<glyph unicode="|" horiz-adv-x="1024" d="M424 -483v2048h178v-2048h-178z" />
<glyph unicode="}" horiz-adv-x="1024" d="M174 -187q137 2 184 65q39 53 39 198v137q0 198 40 278q54 108 225 144q-170 36 -225 145q-40 79 -40 277v137q0 145 -39 199q-47 64 -184 66v57h10q212 0 296 -67q95 -76 95 -280v-200q0 -158 58 -221t215 -78v-68q-156 -13 -214.5 -77.5t-58.5 -221.5v-201 q0 -205 -95 -280q-83 -66 -296 -66h-10v57z" />
<glyph unicode="~" horiz-adv-x="1706" d="M178 434v187q211 143 387 143q117 0 294 -60q12 -4 42 -15q161 -58 250 -58q166 0 379 153v-184q-205 -141 -381 -141q-89 0 -200 38l-67 23q-216 74 -319 74q-158 0 -385 -160z" />
<glyph unicode="&#xa0;" />
<glyph unicode="&#xa1;" horiz-adv-x="502" d="M121 178q0 50 18 200l74 615q1 4 2 17q2 26 25 26h20q22 0 27 -43l73 -614q17 -143 17 -201q0 -188 -127 -188q-129 0 -129 188zM135 1335q0 146 115 146t115 -146q0 -145 -115 -145t-115 145z" />
<glyph unicode="&#xa2;" d="M109 457q0 171 49 324q68 212 196 237v141q0 25 33 25h29q33 0 33 -25v-137q65 -14 110 -78q43 -60 43 -129q0 -32 -29 -57l-88 -76q-14 -12 -30 -12q-23 0 -23 26v60q0 174 -74 174q-98 0 -98 -281q0 -126 28 -238q42 -169 134 -169q58 0 76 72q2 9 6 26q12 53 49 53 q51 0 51 -104q0 -233 -176 -264v-224q0 -24 -33 -24h-28q-33 0 -33 24v222q-225 58 -225 434z" />
<glyph unicode="&#xa3;" d="M-39 109q0 60 48 92q41 28 104 28q51 0 133 -28q28 82 28 166q0 74 -24 186h-133q-64 0 -72 37l-10 47q0 2 -1 5t-1 5q0 21 43 21h147q-92 276 -92 417q0 147 74 241q80 104 223 104q122 0 195 -84q71 -80 71 -203q0 -81 -31 -138q-38 -71 -112 -71q-82 0 -96 80 q59 43 59 151q0 170 -88 170q-76 0 -76 -141q0 -100 30 -264l48 -262h121q68 0 74 -34l8 -45q2 -6 2 -14q0 -22 -37 -22h-159q-8 -217 -93 -379q104 -31 139 -31q76 0 76 56q0 41 -43 57q9 63 94 63q64 0 101 -50q34 -45 34 -111q0 -88 -53.5 -139.5t-142.5 -51.5 q-110 0 -273 101q-72 -101 -172 -101q-65 0 -104 38.5t-39 103.5zM41 98q0 -51 59 -51q60 0 107 80q-48 20 -92 20q-74 0 -74 -49z" />
<glyph unicode="&#xa4;" horiz-adv-x="1241" d="M76 432l203 205q-80 106 -80 248q0 140 80 248l-203 204l92 93l203 -203q110 82 250 82q143 0 251 -82l203 203l94 -93l-204 -204q79 -109 79 -248q0 -141 -79 -248l204 -205l-94 -92l-203 205q-111 -82 -249 -82q-144 0 -252 82l-203 -205zM332 885q0 -124 83.5 -206.5 t207.5 -82.5q123 0 206.5 83t83.5 206q0 122 -84 206.5t-206 84.5t-206.5 -84.5t-84.5 -206.5z" />
<glyph unicode="&#xa5;" d="M10 647v37q0 27 31 27h195l-46 151h-149q-31 0 -31 21v37q0 28 31 28h125l-88 312q-4 14 -33 54q-27 37 -27 44q0 37 54 37h153q74 0 74 -39q0 -9 -22.5 -35.5t-22.5 -40.5q0 -10 2 -17l141 -520l109 521q0 2 1 6t1 6q0 17 -22.5 45t-22.5 35q0 39 74 39h106q55 0 55 -35 q0 -9 -27 -39q-30 -33 -34 -51l-78 -322h119q31 0 31 -20v-37q0 -29 -31 -29h-143l-35 -151h178q31 0 31 -21v-35q0 -30 -31 -30h-201l-10 -47v-447q0 -29 26.5 -61t26.5 -33q0 -37 -65 -37h-166q-64 0 -64 37q0 1 27 33t27 61v424l-19 70h-219q-31 0 -31 22z" />
<glyph unicode="&#xa6;" horiz-adv-x="1024" d="M424 -350v758h178v-758h-178zM424 674v758h178v-758h-178z" />
<glyph unicode="&#xa7;" horiz-adv-x="891" d="M86 598q0 213 193 297q-146 124 -146 287q0 142 97 223q90 76 235 76q105 0 172 -47q76 -53 76 -154q0 -131 -111 -131q-71 0 -102 65q45 10 45 70q0 74 -82 74q-103 0 -103 -141q0 -124 144 -224q26 -18 65 -44q105 -70 127 -93q103 -108 103 -246q0 -203 -183 -268 q148 -108 148 -287q0 -157 -102 -249q-97 -89 -256 -89q-112 0 -187 53q-84 61 -84 169q0 62 35 104.5t96 42.5q82 0 99 -51q-54 -32 -54 -94q0 -101 105 -101q61 0 95 47q30 41 30 105q0 77 -54 139q-32 37 -118 98l-49 35q-234 167 -234 334zM268 694q0 -82 97 -176 q89 -86 157 -86q86 0 86 98q0 84 -96 177q-89 86 -154 86q-90 0 -90 -99z" />
<glyph unicode="&#xa8;" horiz-adv-x="1024" d="M319 1208q0 40 33.5 75.5t73.5 35.5q57 0 57 -62q0 -40 -34 -73t-74 -33q-56 0 -56 57zM541 1208q0 40 34 75.5t74 35.5q56 0 56 -62q0 -40 -33.5 -73t-73.5 -33q-57 0 -57 57z" />
<glyph unicode="&#xa9;" horiz-adv-x="1683" d="M121 678q0 303 210 513t513 210q301 0 510 -211t209 -512q0 -217 -122 -400t-322 -265q-131 -54 -277 -54q-302 0 -511.5 208.5t-209.5 510.5zM219 678q0 -261 181 -443t442 -182q260 0 441 182.5t181 442.5q0 262 -179.5 444.5t-440.5 182.5q-263 0 -444 -182t-181 -445 zM416 670q0 183 116.5 308.5t298.5 125.5q62 0 147 -33l85 -33q50 0 61 62h41l2 -320h-47q-65 273 -274 273q-236 0 -236 -369q0 -379 254 -379q163 0 277 174l43 -26q-124 -213 -350 -213q-182 0 -300 123.5t-118 306.5z" />
<glyph unicode="&#xaa;" horiz-adv-x="516" d="M47 944q0 193 234 289l-2 44q-5 118 -68 118q-28 0 -47 -17q43 -23 43 -65q0 -66 -72 -66q-76 0 -76 86q0 68 55 105q47 32 119 32q182 0 193 -206l18 -334q3 -53 33 -53h11q7 1 10 1q2 -8 2 -22q0 -90 -86 -90q-79 0 -95 98q-47 -98 -129 -98q-67 0 -107 57 q-36 51 -36 121zM184 995q0 -121 58 -121q51 0 51 80v17l-6 188q-2 12 -11 12q-38 0 -67 -72q-25 -62 -25 -104z" />
<glyph unicode="&#xab;" horiz-adv-x="711" d="M45 481q0 12 18 45l179 333q13 24 26 24q4 0 11 -2t10 -2l45 -13q18 -3 18 -24q0 -7 -6 -25l-113 -336l113 -336q6 -18 6 -24q0 -20 -19 -25l-44 -12q-15 -4 -23 -4q-11 0 -24 24l-183 341q-14 26 -14 36zM358 481q0 10 19 45l178 332q6 11 27 25q4 0 10.5 -2t9.5 -2 l46 -13q18 -3 18 -24q0 -6 -6 -24l-113 -337l112 -335q7 -21 7 -25q0 -20 -19 -25l-45 -12q-15 -4 -22 -4q-12 0 -25 24l-184 340q-13 24 -13 37z" />
<glyph unicode="&#xac;" horiz-adv-x="1706" d="M254 696v166h1198v-502h-166v336h-1032z" />
<glyph unicode="&#xad;" horiz-adv-x="631" d="M78 399q0 9 6 31q2 5 2 6l31 103q9 31 29 38q11 5 51 5h219q21 0 63 17t47 17q27 0 27 -30q0 -10 -8 -37l-31 -103q-9 -30 -28 -38q-12 -5 -50 -5h-221q-22 0 -63 -16t-50 -16q-24 0 -24 28z" />
<glyph unicode="&#xae;" horiz-adv-x="1683" d="M121 678q0 303 210 513t513 210q306 0 514 -213q205 -211 205 -518q0 -289 -226 -512q-202 -199 -510 -199q-294 0 -500 212t-206 507zM219 678q0 -261 181 -443t442 -182q260 0 441 182.5t181 442.5q0 262 -179 444.5t-441 182.5q-263 0 -444 -182t-181 -445zM467 287 v46q113 8 113 97v520q0 55 -31 76q-23 16 -82 21v49h399q118 0 205 -40q115 -53 115 -157q0 -159 -283 -209q181 -47 217 -200q6 -25 10 -67q9 -91 54 -91q59 0 59 133h49v-23q0 -174 -170 -174q-149 0 -159 158q-6 91 -9 105q-32 145 -182 145h-24v-246q0 -87 108 -96v-47 h-389zM748 723q28 -2 53 -2q209 0 209 170q0 72 -47.5 115t-120.5 43q-94 0 -94 -68v-258z" />
<glyph unicode="&#xaf;" horiz-adv-x="1024" d="M326 1196v78q0 22 16 22h336q20 0 20 -22v-78q0 -22 -18 -22h-336q-18 0 -18 22z" />
<glyph unicode="&#xb0;" horiz-adv-x="674" d="M43 1163q0 127 84 212t211 85q126 0 210.5 -85.5t84.5 -211.5q0 -125 -86 -210t-211 -85q-126 0 -209.5 84.5t-83.5 210.5zM152 1165q0 -78 54 -132t132 -54t131 53.5t53 132.5t-53 132t-131 53q-79 0 -132.5 -53.5t-53.5 -131.5z" />
<glyph unicode="&#xb1;" horiz-adv-x="1706" d="M254 14v168h1198v-168h-1198zM254 707v165h514v334h170v-334h514v-165h-514v-334h-170v334h-514z" />
<glyph unicode="&#xb2;" horiz-adv-x="475" d="M43 1194q0 221 190 221q89 0 136 -62q43 -56 43 -147q0 -140 -99 -272l-3 -4q-17 -28 -43 -68q-96 -145 -111 -221h45q104 0 135 70q2 5 7 17q18 42 40 42q27 0 27 -25q0 -5 -2 -11l-25 -155q-4 -22 -35 -22h-268q-23 0 -23 23q-1 90 87 252q24 42 90 164q47 90 47 200 q0 162 -64 162q-67 0 -67 -115q0 -82 45 -82q3 0 8 1t8 1q0 -2 1 -7t1 -7q0 -90 -74 -90q-96 0 -96 135z" />
<glyph unicode="&#xb3;" horiz-adv-x="475" d="M37 735q0 53 25 93q29 46 79 46q66 0 66 -57v-5q-49 -17 -49 -97q0 -107 53 -107q51 0 65 80q5 29 5 117q0 203 -72 203q-11 0 -34.5 -10.5t-29.5 -10.5q-28 1 -28 27q0 11 12 31l154 258h-54q-46 0 -75 -39q-4 -6 -17 -24q-20 -30 -37 -30q-24 0 -24 25q0 3 1 10t1 10 l22 100q10 46 33 46q1 0 6 -1q27 -5 60 -5h170q51 0 51 -23q0 -15 -21 -51l-141 -240q86 0 131 -89q35 -70 35 -165q0 -290 -209 -290q-178 0 -178 198z" />
<glyph unicode="&#xb4;" horiz-adv-x="1024" d="M432 1114l14 28l119 201q17 29 37 29h121q33 0 33 -16t-25 -43l-182 -197q-17 -18 -43 -18h-43q-31 0 -31 16z" />
<glyph unicode="&#xb6;" horiz-adv-x="1024" d="M55 1130q0 167 114 261q107 88 277 88h523v-99h-117v-1380h-129v1380h-168v-1380h-131v784q-162 6 -262 94q-107 93 -107 252z" />
<glyph unicode="&#xb7;" horiz-adv-x="360" d="M57 698q0 51 35 86t86 35q52 0 87.5 -34.5t35.5 -86.5t-35.5 -87.5t-87.5 -35.5t-86.5 35.5t-34.5 87.5z" />
<glyph unicode="&#xb8;" horiz-adv-x="1024" d="M342 -324l23 68q76 -33 127 -33q63 0 63 60q0 61 -61 61h-21q-35 0 -35 31v137h62v-108q40 6 53 6q125 0 125 -127q0 -67 -51 -104q-46 -34 -115 -34q-92 0 -170 43z" />
<glyph unicode="&#xb9;" horiz-adv-x="475" d="M119 580q0 11 28 22q33 13 33 62v546q0 47 -17 58q-3 2 -19 7q-25 8 -25 21q0 14 24 31l105 75q18 13 35 13q18 0 18 -45v-706q0 -46 33 -62q2 -1 9 -3q19 -6 19 -19q0 -23 -53 -23h-137q-53 0 -53 23z" />
<glyph unicode="&#xba;" horiz-adv-x="471" d="M41 1098q0 116 39 225q53 147 149 147q103 0 160 -140q43 -106 43 -226q0 -115 -37 -210q-50 -128 -147 -128q-107 0 -163 119q-44 93 -44 213zM133 1282q0 -98 55 -231q58 -140 111 -140q39 0 39 50q0 67 -57 213q-63 161 -111 161q-37 0 -37 -53z" />
<glyph unicode="&#xbb;" horiz-adv-x="711" d="M37 121q0 7 6 25l113 335l-113 336q-6 18 -6 25q0 18 20 24l46 13q14 4 22 4q11 0 24 -24l183 -341q14 -26 14 -37t-18 -45l-178 -332q-13 -24 -25 -24q-8 0 -23 4l-44 12q-21 6 -21 25zM350 121q0 6 6 24l113 336l-113 337q-6 18 -6 24q0 21 18 24l46 13q14 4 24 4 q9 0 23 -25l184 -340q14 -26 14 -37q0 -5 -17 -39l-3 -6l-178 -332q-13 -24 -25 -24q-7 0 -22 4l-45 12q-19 5 -19 25z" />
<glyph unicode="&#xbc;" horiz-adv-x="1249" d="M113 635q0 12 15 17q9 3 13 5q31 11 31 56v510q0 43 -18 55q-4 2 -16 6q-25 8 -25 21t22 28l101 70q14 12 32 12q19 0 19 -43v-659q0 -43 31 -56q26 -11 26 -22q0 -21 -49 -21h-133q-49 0 -49 21zM123 -20q0 8 10 24l862 1393q20 33 54 33h55q26 0 26 -13q0 -9 -10 -25 l-862 -1394q-19 -31 -55 -31h-53q-27 0 -27 13zM840 207v72q0 26 8 45l190 442q15 35 45 35h21q49 0 49 -39v-516h29q26 0 26 -21v-20q0 -21 -22 -21h-33v-86q0 -43 26 -55q25 -8 25 -23q0 -20 -43 -20h-131q-43 0 -43 20q0 3 25.5 22t25.5 56v86h-172q-26 0 -26 23z M901 246h137v323z" />
<glyph unicode="&#xbd;" horiz-adv-x="1249" d="M113 635q0 12 15 17q9 3 13 5q31 11 31 56v510q0 43 -18 55q-4 2 -16 6q-25 8 -25 21t22 28l101 70q14 12 32 12q19 0 19 -43v-659q0 -43 31 -56q26 -11 26 -22q0 -21 -49 -21h-133q-49 0 -49 21zM123 -20q0 8 10 24l862 1393q20 33 54 33h55q26 0 26 -13q0 -9 -10 -25 l-862 -1394q-19 -31 -55 -31h-53q-27 0 -27 13zM838 594q0 90 44 146q48 61 136 61q172 0 172 -195q0 -109 -94 -256q-14 -22 -46 -69q-89 -131 -106 -201h45q54 0 77 9q33 13 52 54q2 4 6 14q16 42 37 42q27 0 27 -23q0 -6 -2 -10l-23 -144q-4 -22 -33 -22h-258 q-22 0 -22 23q0 77 78 221q24 42 90 164q45 85 45 188q0 152 -59 152q-64 0 -64 -107q0 -76 43 -76q10 0 14 2q0 -3 1 -8t1 -8q0 -82 -69 -82q-92 0 -92 125z" />
<glyph unicode="&#xbe;" horiz-adv-x="1251" d="M37 780q0 51 23 88q27 43 75 43q62 0 62 -55l-1 -6q-44 -11 -44 -88q0 -100 49 -100q67 0 67 184q0 188 -69 188q-10 0 -30.5 -9t-29.5 -9q-26 0 -26 24q0 13 10 29l147 240h-53q-45 0 -72 -35q-3 -4 -14 -21q-18 -28 -35 -28q-24 0 -24 22q0 7 4 19l20 93q9 44 31 44 q8 0 29.5 -4t33.5 -4h160q49 0 49 -19t-18 -49l-135 -223q83 0 126 -82q34 -65 34 -156q0 -270 -201 -270q-168 0 -168 184zM123 -20q0 8 10 24l862 1393q20 33 54 33h55q26 0 26 -13q0 -9 -10 -25l-862 -1394q-19 -31 -55 -31h-53q-27 0 -27 13zM840 207v72q0 26 8 45 l190 442q15 35 45 35h21q49 0 49 -39v-516h29q26 0 26 -21v-20q0 -21 -22 -21h-33v-86q0 -43 26 -55q25 -8 25 -23q0 -20 -43 -20h-131q-43 0 -43 20q0 3 25.5 22t25.5 56v86h-172q-26 0 -26 23zM901 246h137v323z" />
<glyph unicode="&#xbf;" horiz-adv-x="688" d="M72 301q0 117 53 201q56 71 141 203q53 109 53 284q0 4 -1 12.5t-1 12.5q0 78 48 78q43 0 53 -83q2 -17 2 -112q0 -157 -61 -314q-6 -15 -23 -58q-49 -125 -49 -206q0 -145 71 -145q64 0 64 117q0 100 -45 121q18 67 94 67q80 0 119 -75q31 -59 31 -146q0 -119 -68 -192 q-70 -76 -188 -76q-139 0 -217 87q-76 84 -76 224zM254 1335q0 146 115 146q114 0 114 -146q0 -145 -114 -145q-115 0 -115 145z" />
<glyph unicode="&#xc0;" horiz-adv-x="2845" d="M82 -25l1016 344l12 -10l-979 -334h-49zM82 -25h49l1245 -413v-19zM82 1124h49l1245 -417v-19zM82 1124l1294 439v-19l-1245 -420h-49zM117 -12h2513v-19h-2513v19zM117 1110v23h2513v-23h-2513zM219 -25h53l1104 -413v-19zM219 -25l885 334l12 -10l-844 -324h-53z M219 1124l1157 439v-19l-1104 -420h-53zM219 1124h53l1104 -417v-19zM481 -25l645 318l15 -10l-619 -308h-41zM481 -25h41l854 -413v-19zM481 1124h41l854 -417v-19zM481 1124l895 439v-19l-854 -420h-41zM618 -188h1518l-31 -19h-1460zM618 956h1518l-31 -18h-1460z M772 -25l393 285l11 -12l-373 -273h-31zM772 -25h31l573 -413v-19zM772 1124l604 439v-19l-573 -420h-31zM772 1124h31l573 -417v-19zM961 551q0 200 109.5 310t309.5 110q201 0 308.5 -109.5t107.5 -310.5q0 -197 -109.5 -306.5t-306.5 -109.5q-198 0 -308.5 109 t-110.5 307zM1030 287l37 12h49l21 -12h-107zM1030 1432l37 12h619l40 -12h-696zM1038 506q0 -33 27 -33t27 31q0 28 -25 28q-6 0 -12 -2q-17 -12 -17 -24zM1044 -336h668l-31 -12h-620zM1044 811h478l8 -12h-469zM1057 446l12 -34l39 -70l18 -23l29 -24l37 -27l31 -16 l28 -10l-18 18l-23 16l-32 37l-23 25l-39 78l-6 24l-10 27l-10 -12l-11 -9h-22zM1083 -25h21l272 -413v-19zM1083 -25l293 439v-17l-272 -422h-21zM1083 1124l293 439v-19l-272 -420h-21zM1083 1124h21l272 -417v-19zM1098 319l112 35zM1110 309zM1116 299zM1137 287z M1141 283zM1176 248zM1210 354l166 60v-17l-153 -55zM1212 354zM1212 354l164 60v-17l-153 -59zM1223 340l153 74v-17l-143 -69zM1223 340zM1239 313zM1239 313l137 101v-17l-129 -94zM1251 299zM1251 299h435l40 -12h-466zM1370 406h16v-850l-16 4v846zM1370 702v850h16 v-850h-16zM1376 397v17l613 -439h-35zM1376 397v17l901 -439h-45zM1376 397v17l295 -439h-20zM1376 397v17l1159 -439h-53zM1376 397v17l1297 -439h-50zM1376 -438l275 413h20l-295 -432v19zM1376 -438l1247 413h50l-1297 -432v19zM1376 -438l1106 413h53l-1159 -432v19z M1376 -438l578 413h35l-613 -432v19zM1376 -438l856 413h45l-901 -432v19zM1376 688v19l174 59l11 -16zM1376 688v19l170 63l13 -10zM1376 688v19l146 104l8 -12zM1376 688v19l160 77l10 -14zM1376 688v19l275 417h20zM1376 1544v19l295 -439h-20zM1376 1544v19l613 -439 h-35zM1376 1544v19l901 -439h-45zM1376 1544v19l1159 -439h-53zM1376 1544v19l1297 -439h-50zM1518 887l24 -27l19 -18l14 -17l6 -16l16 -25l9 -22l12 -37l14 14l25 19l16 2l-51 63l-25 21l-22 16l-39 17zM1530 799zM1530 799zM1546 770zM1559 760zM1561 750zM1604 870 l350 254h35l-373 -268zM1604 870zM1632 831zM1632 831l600 293h45l-626 -307zM1653 811zM1653 811l829 313h53l-870 -325zM1653 811zM1653 811h59l-31 -12h-16zM1663 801zM1663 801l960 323h50l-1002 -336zM2103 158zM2103 1303z" />
<glyph unicode="&#xc1;" horiz-adv-x="6042" d="M92 -414h1612v389h-1206v775h-406v-1164zM92 1137v387h1612v-387h-1612zM2105 -414h404v776h805v-776h399v1164h-1608v-1164zM2105 1137v387h1608v-387h-1608zM4119 -25v-389h1607v1164h-1607v-388h1206v-387h-1206zM4119 1137v387h1607v-387h-1607z" />
<glyph unicode="&#xc2;" horiz-adv-x="2245" d="M102 1561l1037 -1983l1018 1983h-76v-48h10l-956 -1841l-963 1841h1909v48h-1979zM391 1368l119 -229h1241l117 229h-1477zM551 1059l121 -230h921l117 230h-1159zM575 1253q0 56 50 56h16v-27h-12q-27 0 -27 -29q0 -26 27 -26h12v-25h-16q-50 0 -50 51zM664 1260 q0 49 53 49q49 0 49 -49q0 -58 -49 -58q-53 0 -53 58zM688 1253q0 -26 29 -26q24 0 24 26q0 29 -24 29q-29 0 -29 -29zM711 756l120 -234h601l118 234h-839zM762 893l22 102h23l24 -102h-22l-2 18h-23l-2 -18h-20zM791 928h12q-6 22 -8 45zM791 1202l6 82q2 25 18 25 q19 0 21 -23l4 -49l10 53q4 19 20 19q19 0 19 -23l8 -84h-23l-8 84l-12 -67q-3 -17 -14 -17q-9 0 -9 12l-16 70l-4 -82h-20zM864 893v102h17q45 0 45 -51q0 -39 -29 -47q-4 -4 -18 -4h-15zM866 434v10h537v-10h-537zM866 434h8q74 -139 173 -309q22 -31 40 -31q24 0 29 39 q15 111 -4 111h-10l-29 -19l62 189v-506zM883 911q22 0 22 33t-22 33v-66zM885 592v22q12 -8 18 -8q12 0 12 15l-14 14q-16 16 -16 27q0 26 28 26q7 0 17 -4v-16q-8 2 -10 4q-15 0 -15 -10l15 -19q13 -16 14 -22q0 -37 -29 -37q-8 0 -20 8zM920 1202v66q0 41 36 41 q35 0 35 -37q0 -35 -35 -35h-4v25q17 0 17 10q0 12 -15 12q-10 0 -10 -12v-70h-24zM944 688h23l6 -18q4 -4 6 -19q2 6 2 19l8 18h21l-25 -55v-47h-16v47zM954 995h25l10 -75q0 9 6 30l13 45h20l-24 -102h-23zM1018 1237v72h22v-72q0 -14 11 -14q18 0 18 14v72h21v-72 q0 -35 -39 -35q-33 0 -33 35zM1022 662q0 26 25 26q12 0 22 -4v-16q-10 2 -18 4q-7 0 -7 -10l13 -19q8 -11 12 -22q0 -37 -29 -37q-8 0 -16 8v22q8 -8 14 -8q9 0 9 15l-11 14q-14 18 -14 27zM1051 893l22 102h19l28 -102h-24l-4 18h-19l-2 -18h-20zM1075 928h15l-3 45z M1087 670v18h52v-18h-17v-84h-20v84h-15zM1112 1282v27h64v-27h-17v-80h-29v80h-18zM1135 -92l268 526h-10q-109 -211 -168 -309q-19 -31 -45 -31q-23 0 -27 39q-11 111 8 111h2q17 -8 31 -19l-59 189v-506zM1153 893v102h23l18 -53q0 -6 6 -22q-2 22 -2 34v41h21v-102h-21 l-22 57q0 8 -7 19q7 -15 7 -33v-43h-23zM1161 586v102h43v-18h-24v-19h20v-20h-20v-25h24v-20h-43zM1194 1260q0 49 53 49t53 -49q0 -58 -53 -58t-53 58zM1219 1253q0 -26 28 -26q31 0 31 26q0 29 -31 29q-28 0 -28 -29zM1227 586l10 102h25l6 -37q2 -12 2 -30q2 4 6 30 l2 37h25l12 -102h-21l-6 47v37l-10 -84h-16l-13 84v-13q-2 -10 -2 -16v-8l-4 -47h-16zM1255 944q0 51 41 51h13v-22q-2 4 -9 4q-22 0 -22 -33t22 -33q7 0 9 7v-21q-2 -4 -9 -4q-45 0 -45 51zM1327 1202v66q0 41 35 41q37 0 37 -27v-2q0 -23 -23 -27q23 0 23 -16v-35h-27v35 q0 6 -14 6v23q14 0 14 8q0 10 -10 10t-10 -12v-70h-25zM1333 592v22q10 -8 15 -8q12 0 12 15l-14 14q-13 13 -13 27q0 26 27 26q8 0 14 -4v-16l-12 4q-6 0 -6 -10l10 -19q10 -14 10 -22q0 -37 -24 -37q-9 0 -19 8zM1356 893v102h37v-18h-21v-23h21v-16h-21v-20h21v-25h-37z M1430 1202v107h24v-107h-24zM1438 893v102h16q45 0 45 -51t-49 -51h-12zM1456 911q23 0 23 33t-23 33v-66zM1479 1237v72h26v-72q0 -14 15 -14q10 0 10 14v72h26v-72q0 -35 -36 -35q-41 0 -41 35zM1581 1202l4 82q1 25 23 25q12 0 16 -23l8 -49h4l4 53q1 19 23 19 q19 0 20 -23l5 -84h-23l-2 84l-16 -67q-4 -17 -11 -17q-14 0 -14 12l-12 70l-6 -82h-23z" />
<glyph unicode="&#xc3;" horiz-adv-x="2361" d="M78 1518v36h2160v-36h-2160zM78 1524h33q284 -523 684 -1162q94 -100 174 -100q91 0 108 131q25 190 25 273q0 143 -47 143h-11q-9 0 -22 -8q-91 -57 -111 -60l244 709v-1894zM1155 -444l1083 1968h-32q-293 -523 -693 -1162q-86 -100 -170 -100q-92 0 -112 131 q-25 163 -25 264q0 152 54 152h8q6 0 127 -68l-240 709v-1894z" />
<glyph unicode="&#xc4;" horiz-adv-x="834" d="M20 37q0 25 30 41q12 6 16 10q16 15 32 109l205 1181q14 78 74 78h65q40 0 55 -20q11 -14 19 -58l213 -1159q19 -102 37 -125q6 -6 13 -12q26 -22 26 -43q0 -39 -55 -39h-218q-75 0 -75 41q0 5 22.5 34.5t22.5 49.5v12l-11 79q-6 40 -71 40h-74q-62 0 -69 -40l-13 -79 v-12q0 -20 23.5 -49.5t23.5 -34.5q0 -41 -78 -41h-155q-58 0 -58 37zM219 1704q0 40 33.5 75.5t73.5 35.5q57 0 57 -62q0 -40 -34 -73t-74 -33q-56 0 -56 57zM299 436q0 -45 74 -45q73 0 73 47q0 18 -2 36l-55 505q-2 22 -12 22t-13 -23l-61 -499q0 -3 -1 -6q-3 -27 -3 -37z M441 1704q0 40 34 75.5t74 35.5q56 0 56 -62q0 -40 -33.5 -73t-73.5 -33q-57 0 -57 57z" />
<glyph unicode="&#xc5;" horiz-adv-x="834" d="M20 37q0 25 30 41q12 6 16 10q16 15 32 109l205 1181q14 78 74 78h65q40 0 55 -20q11 -14 19 -58l213 -1159q19 -102 37 -125q6 -6 13 -12q26 -22 26 -43q0 -39 -55 -39h-218q-75 0 -75 41q0 5 22.5 34.5t22.5 49.5v12l-11 79q-6 40 -71 40h-74q-62 0 -69 -40l-13 -79 v-12q0 -20 23.5 -49.5t23.5 -34.5q0 -41 -78 -41h-155q-58 0 -58 37zM221 1737q0 82 55.5 136t137.5 54t137 -54t55 -136q0 -81 -56 -138t-136 -57q-81 0 -137 57t-56 138zM299 436q0 -45 74 -45q73 0 73 47q0 18 -2 36l-55 505q-2 22 -12 22t-13 -23l-61 -499q0 -3 -1 -6 q-3 -27 -3 -37zM319 1735q0 -39 27 -66t66 -27t66.5 27t27.5 66q0 38 -28 65t-66 27t-65.5 -27t-27.5 -65z" />
<glyph unicode="&#xc6;" horiz-adv-x="1262" d="M-43 37q0 -1 42 60q43 65 52 100l268 1066q7 28 7 52q0 38 -40 55q-3 2 -13 6q-40 17 -40 41q0 39 80 39h607q25 0 73.5 12.5t73.5 12.5q33 0 51 -66l53 -198q21 -78 21 -105q0 -53 -47 -53q-39 0 -92 87q-32 53 -45 71q-84 118 -162 118q-58 0 -58 -86v-235 q0 -111 50 -111q24 0 57 47t66 47t53 -51l92 -239q18 -47 18 -68q0 -47 -49 -47q-26 0 -51 29l-20 24q-99 117 -160 117q-56 0 -56 -92v-406q0 -68 6 -85q13 -38 64 -38q89 0 174 109q30 39 54 75q51 78 83 78q48 0 48 -53q0 -19 -5 -31l-67 -262q-22 -86 -60 -86 q-5 1 -20 6q-67 23 -135 23h-357q-79 0 -79 39l24.5 34.5t24.5 63.5v78q0 41 -56 41h-127q-59 0 -84 -13q-34 -17 -45 -69l-8 -37q-2 -9 -2 -14q0 -18 24.5 -46.5t24.5 -35.5q0 -41 -77 -41h-168q-68 0 -68 37zM307 426q0 -35 78 -35h92q64 0 64 82v827q0 21 -17 21 q-13 0 -18 -22l-187 -791q0 -3 -2 -14q-8 -62 -10 -68z" />
<glyph unicode="&#xc7;" horiz-adv-x="797" d="M61 551q0 300 70 551q106 379 330 379q19 0 55 -12.5t51 -12.5q5 0 30 13.5t38 13.5q50 0 61 -86l31 -236q4 -30 4 -76q0 -71 -57 -71q-40 0 -84 131q-3 9 -13 40q-55 169 -108 169q-133 0 -133 -678q0 -233 7 -294q26 -226 130 -226q127 0 127 286v78q0 80 55 80 q93 0 93 -254q0 -167 -73 -263q-81 -108 -243 -108q-200 0 -297 200q-74 153 -74 376zM242 -324l23 68q76 -33 127 -33q63 0 63 60q0 61 -61 61h-21q-35 0 -35 31v137h62v-108q40 6 53 6q125 0 125 -127q0 -67 -51 -104q-46 -34 -115 -34q-92 0 -170 43z" />
<glyph unicode="&#xc8;" horiz-adv-x="854" d="M84 39l24.5 34.5t24.5 63.5v1182q0 29 -23.5 63.5l-23.5 34.5q0 39 78 39h346q25 0 73.5 12.5t73.5 12.5q32 0 49 -57l3 -9l55 -199q18 -65 18 -104q0 -53 -47 -53q-39 0 -92 87q-32 53 -45 71q-84 118 -162 118q-57 0 -57 -86v-235q0 -111 49 -111q26 0 58.5 47t64.5 47 q33 0 53 -51l94 -239q17 -43 17 -68q0 -47 -49 -47q-26 0 -52 29l-20 24q-99 117 -160 117q-55 0 -55 -92v-406q0 -67 6 -85q13 -38 64 -38q89 0 174 109q20 26 53 75q52 78 84 78q47 0 47 -53q0 -16 -4 -31l-68 -262q-22 -86 -59 -86q-6 1 -21 6q-67 23 -135 23h-356 q-80 0 -80 39zM172 1850q0 18 35 18h121q20 0 37 -29l119 -200q12 -20 12 -31q0 -14 -29 -14h-43q-23 0 -43 18l-182 197q-27 29 -27 41z" />
<glyph unicode="&#xc9;" horiz-adv-x="854" d="M84 39l24.5 34.5t24.5 63.5v1182q0 29 -23.5 63.5l-23.5 34.5q0 39 78 39h346q25 0 73.5 12.5t73.5 12.5q32 0 49 -57l3 -9l55 -199q18 -65 18 -104q0 -53 -47 -53q-39 0 -92 87q-32 53 -45 71q-84 118 -162 118q-57 0 -57 -86v-235q0 -111 49 -111q26 0 58.5 47t64.5 47 q33 0 53 -51l94 -239q17 -43 17 -68q0 -47 -49 -47q-26 0 -52 29l-20 24q-99 117 -160 117q-55 0 -55 -92v-406q0 -67 6 -85q13 -38 64 -38q89 0 174 109q20 26 53 75q52 78 84 78q47 0 47 -53q0 -16 -4 -31l-68 -262q-22 -86 -59 -86q-6 1 -21 6q-67 23 -135 23h-356 q-80 0 -80 39zM334 1610l14 28l119 201q17 29 37 29h121q33 0 33 -16t-25 -43l-182 -197q-17 -18 -43 -18h-43q-31 0 -31 16z" />
<glyph unicode="&#xca;" horiz-adv-x="854" d="M84 39l24.5 34.5t24.5 63.5v1182q0 29 -23.5 63.5l-23.5 34.5q0 39 78 39h346q25 0 73.5 12.5t73.5 12.5q32 0 49 -57l3 -9l55 -199q18 -65 18 -104q0 -53 -47 -53q-39 0 -92 87q-32 53 -45 71q-84 118 -162 118q-57 0 -57 -86v-235q0 -111 49 -111q26 0 58.5 47t64.5 47 q33 0 53 -51l94 -239q17 -43 17 -68q0 -47 -49 -47q-26 0 -52 29l-20 24q-99 117 -160 117q-55 0 -55 -92v-406q0 -67 6 -85q13 -38 64 -38q89 0 174 109q20 26 53 75q52 78 84 78q47 0 47 -53q0 -16 -4 -31l-68 -262q-22 -86 -59 -86q-6 1 -21 6q-67 23 -135 23h-356 q-80 0 -80 39zM205 1633q0 12 12 32l99 168q22 37 53 37h100q25 0 47 -37l95 -163q12 -26 12 -39q0 -37 -33 -37q-26 0 -57 37l-119 143l-131 -152q-24 -28 -47 -28q-31 0 -31 39z" />
<glyph unicode="&#xcb;" horiz-adv-x="854" d="M84 39l24.5 34.5t24.5 63.5v1182q0 29 -23.5 63.5l-23.5 34.5q0 39 78 39h346q25 0 73.5 12.5t73.5 12.5q32 0 49 -57l3 -9l55 -199q18 -65 18 -104q0 -53 -47 -53q-39 0 -92 87q-32 53 -45 71q-84 118 -162 118q-57 0 -57 -86v-235q0 -111 49 -111q26 0 58.5 47t64.5 47 q33 0 53 -51l94 -239q17 -43 17 -68q0 -47 -49 -47q-26 0 -52 29l-20 24q-99 117 -160 117q-55 0 -55 -92v-406q0 -67 6 -85q13 -38 64 -38q89 0 174 109q20 26 53 75q52 78 84 78q47 0 47 -53q0 -16 -4 -31l-68 -262q-22 -86 -59 -86q-6 1 -21 6q-67 23 -135 23h-356 q-80 0 -80 39zM221 1704q0 40 33.5 75.5t73.5 35.5q57 0 57 -62q0 -40 -34 -73t-74 -33q-56 0 -56 57zM443 1704q0 40 34 75.5t74 35.5q56 0 56 -62q0 -40 -33.5 -73t-73.5 -33q-57 0 -57 57z" />
<glyph unicode="&#xcc;" horiz-adv-x="512" d="M14 1850q0 18 35 18h121q20 0 37 -29l119 -200q12 -20 12 -31q0 -14 -29 -14h-43q-23 0 -43 18l-182 197q-27 29 -27 41zM84 39l24.5 34.5t24.5 63.5v1182q0 29 -23.5 63.5l-23.5 34.5q0 39 78 39h184q78 0 78 -39l-23.5 -34.5t-23.5 -63.5v-1182q0 -29 23.5 -63.5 l23.5 -34.5q0 -39 -78 -39h-184q-80 0 -80 39z" />
<glyph unicode="&#xcd;" horiz-adv-x="512" d="M84 39l24.5 34.5t24.5 63.5v1182q0 29 -23.5 63.5l-23.5 34.5q0 39 78 39h184q78 0 78 -39l-23.5 -34.5t-23.5 -63.5v-1182q0 -29 23.5 -63.5l23.5 -34.5q0 -39 -78 -39h-184q-80 0 -80 39zM176 1610l14 28l119 201q17 29 37 29h121q33 0 33 -16t-25 -43l-182 -197 q-17 -18 -43 -18h-43q-31 0 -31 16z" />
<glyph unicode="&#xce;" horiz-adv-x="512" d="M47 1633q0 12 12 32l99 168q22 37 53 37h100q25 0 47 -37l95 -163q12 -26 12 -39q0 -37 -33 -37q-26 0 -57 37l-119 143l-131 -152q-24 -28 -47 -28q-31 0 -31 39zM84 39l24.5 34.5t24.5 63.5v1182q0 29 -23.5 63.5l-23.5 34.5q0 39 78 39h184q78 0 78 -39l-23.5 -34.5 t-23.5 -63.5v-1182q0 -29 23.5 -63.5l23.5 -34.5q0 -39 -78 -39h-184q-80 0 -80 39z" />
<glyph unicode="&#xcf;" horiz-adv-x="512" d="M63 1704q0 40 33.5 75.5t73.5 35.5q57 0 57 -62q0 -40 -34 -73t-74 -33q-56 0 -56 57zM84 39l24.5 34.5t24.5 63.5v1182q0 29 -23.5 63.5l-23.5 34.5q0 39 78 39h184q78 0 78 -39l-23.5 -34.5t-23.5 -63.5v-1182q0 -29 23.5 -63.5l23.5 -34.5q0 -39 -78 -39h-184 q-80 0 -80 39zM285 1704q0 40 34 75.5t74 35.5q56 0 56 -62q0 -40 -33.5 -73t-73.5 -33q-57 0 -57 57z" />
<glyph unicode="&#xd0;" horiz-adv-x="899" d="M59 547q0 312 73 561q109 373 349 373q21 0 61 -10.5t60 -10.5q12 0 39.5 10.5t40.5 10.5q42 0 61 -107l41 -225q9 -49 9 -82q0 -68 -56 -68q-47 0 -98 126q-21 55 -67 153q-44 76 -95 76q-143 0 -143 -678q0 -221 11 -301q31 -225 144 -225q62 0 77 65q5 22 5 117v284 q0 30 -23.5 63.5l-23.5 33.5q0 39 78 39h154q80 0 80 -39l-25 -33.5t-25 -63.5v-428q0 -32 27 -77t27 -50q0 -50 -136 -72q-86 -14 -172 -14q-473 0 -473 572zM256 1823q0 23 15 23h45q14 0 20 -20q3 -9 11 -32q37 -65 110 -65q70 0 107 65l12 32q8 20 20 20h43q15 0 15 -23 q0 -88 -55 -147.5t-142 -59.5q-88 0 -144.5 59.5t-56.5 147.5z" />
<glyph unicode="&#xd1;" horiz-adv-x="887" d="M84 39l24.5 34.5t24.5 63.5v1182q0 29 -23.5 63.5l-23.5 34.5q0 39 78 39h123q65 0 84 -51l227 -614v528q0 29 -24.5 63.5l-24.5 34.5q0 39 80 39h98q80 0 80 -39l-24.5 -34.5t-24.5 -63.5v-1272q0 -72 -37 -72h-51q-64 0 -64 92v1v15q0 126 -51 257l-260 666v-869 q0 -29 23.5 -63.5l23.5 -34.5q0 -39 -80 -39h-98q-80 0 -80 39zM224 1645q0 20 41 88q51 84 104 84q25 0 86 -30.5t80 -30.5t58.5 38.5t48.5 38.5q28 0 28 -26q0 -23 -39 -90q-49 -84 -106 -84q-25 0 -85.5 30.5t-78.5 30.5q-19 0 -58.5 -38t-48.5 -38q-30 0 -30 27z" />
<glyph unicode="&#xd2;" horiz-adv-x="895" d="M61 598q0 294 66 528q100 355 322 355q225 0 324 -364q63 -232 63 -537q0 -236 -76 -395q-100 -210 -311 -210q-216 0 -315 217q-73 160 -73 406zM207 1850q0 18 35 18h121q20 0 37 -29l119 -200q12 -20 12 -31q0 -14 -29 -14h-43q-23 0 -43 18l-182 197q-27 29 -27 41z M336 743l1 -336q0 -134 33 -210q30 -70 79 -70q91 0 110 280q2 29 2 336q0 282 -4 335q-21 280 -108 280q-89 0 -110 -280q-4 -48 -3 -335z" />
<glyph unicode="&#xd3;" horiz-adv-x="895" d="M61 598q0 294 66 528q100 355 322 355q225 0 324 -364q63 -232 63 -537q0 -236 -76 -395q-100 -210 -311 -210q-216 0 -315 217q-73 160 -73 406zM336 743l1 -336q0 -134 33 -210q30 -70 79 -70q91 0 110 280q2 29 2 336q0 282 -4 335q-21 280 -108 280q-89 0 -110 -280 q-4 -48 -3 -335zM369 1610l14 28l119 201q17 29 37 29h121q33 0 33 -16t-25 -43l-182 -197q-17 -18 -43 -18h-43q-31 0 -31 16z" />
<glyph unicode="&#xd4;" horiz-adv-x="895" d="M61 598q0 294 66 528q100 355 322 355q225 0 324 -364q63 -232 63 -537q0 -236 -76 -395q-100 -210 -311 -210q-216 0 -315 217q-73 160 -73 406zM240 1633q0 12 12 32l99 168q22 37 53 37h100q25 0 47 -37l95 -163q12 -26 12 -39q0 -37 -33 -37q-26 0 -57 37l-119 143 l-131 -152q-24 -28 -47 -28q-31 0 -31 39zM336 743l1 -336q0 -134 33 -210q30 -70 79 -70q91 0 110 280q2 29 2 336q0 282 -4 335q-21 280 -108 280q-89 0 -110 -280q-4 -48 -3 -335z" />
<glyph unicode="&#xd5;" horiz-adv-x="895" d="M61 598q0 294 66 528q100 355 322 355q225 0 324 -364q63 -232 63 -537q0 -236 -76 -395q-100 -210 -311 -210q-216 0 -315 217q-73 160 -73 406zM224 1645q0 20 41 88q51 84 104 84q25 0 86 -30.5t80 -30.5t58.5 38.5t48.5 38.5q28 0 28 -26q0 -23 -39 -90 q-49 -84 -106 -84q-25 0 -85.5 30.5t-78.5 30.5q-19 0 -58.5 -38t-48.5 -38q-30 0 -30 27zM336 743l1 -336q0 -134 33 -210q30 -70 79 -70q91 0 110 280q2 29 2 336q0 282 -4 335q-21 280 -108 280q-89 0 -110 -280q-4 -48 -3 -335z" />
<glyph unicode="&#xd6;" horiz-adv-x="895" d="M61 598q0 294 66 528q100 355 322 355q225 0 324 -364q63 -232 63 -537q0 -236 -76 -395q-100 -210 -311 -210q-216 0 -315 217q-73 160 -73 406zM256 1704q0 40 33.5 75.5t73.5 35.5q57 0 57 -62q0 -40 -34 -73t-74 -33q-56 0 -56 57zM336 743l1 -336q0 -134 33 -210 q30 -70 79 -70q91 0 110 280q2 29 2 336q0 282 -4 335q-21 280 -108 280q-89 0 -110 -280q-4 -48 -3 -335zM478 1704q0 40 34 75.5t74 35.5q56 0 56 -62q0 -40 -33.5 -73t-73.5 -33q-57 0 -57 57z" />
<glyph unicode="&#xd7;" horiz-adv-x="1706" d="M287 152l458 458l-458 461l116 117l459 -459l461 459l117 -117l-459 -461l459 -458l-117 -119l-461 461l-459 -461z" />
<glyph unicode="&#xd8;" horiz-adv-x="895" d="M-12 -61q0 8 6 20l127 258q-60 126 -60 401q0 286 68 517q102 346 320 346q139 0 221 -138l71 145q16 32 41 32l8 -2q4 -1 7 -2l45 -25q16 -9 16 -29q0 -8 -6 -20l-113 -230q97 -259 97 -632q0 -236 -76 -395q-100 -210 -311 -210q-153 0 -250 115l-95 -179 q-15 -28 -34 -28q-4 0 -10.5 2t-8.5 2l-47 25q-16 9 -16 27zM324 731q0 -28 1 -84t1 -84l235 543q-18 252 -112 252q-98 0 -121 -283q-4 -49 -4 -344zM334 365q11 -238 115 -238q101 0 122 298q2 28 2 359q0 23 -2 81q-1 22 -2 48z" />
<glyph unicode="&#xd9;" horiz-adv-x="877" d="M80 1417q0 39 80 39h184q78 0 78 -39q0 2 -23 -34.5t-24 -63.5l-25 -983q-4 -176 129 -176q78 0 105 63q18 42 18 133v15l-18 947q-1 27 -24 63.5t-23 35.5q0 39 77 39h99q80 0 80 -39q0 -1 -24 -33.5t-24 -60.5v-4l19 -979q0 -181 -62 -266q-73 -99 -247 -99 q-195 0 -273 86q-73 82 -73 279q0 40 2 145l16 838q1 27 -23 60t-24 34zM217 1850q0 18 35 18h121q20 0 37 -29l119 -200q12 -20 12 -31q0 -14 -29 -14h-43q-23 0 -43 18l-182 197q-27 29 -27 41z" />
<glyph unicode="&#xda;" horiz-adv-x="877" d="M80 1417q0 39 80 39h184q78 0 78 -39q0 2 -23 -34.5t-24 -63.5l-25 -983q-4 -176 129 -176q78 0 105 63q18 42 18 133v15l-18 947q-1 27 -24 63.5t-23 35.5q0 39 77 39h99q80 0 80 -39q0 -1 -24 -33.5t-24 -60.5v-4l19 -979q0 -181 -62 -266q-73 -99 -247 -99 q-195 0 -273 86q-73 82 -73 279q0 40 2 145l16 838q1 27 -23 60t-24 34zM379 1610l14 28l119 201q17 29 37 29h121q33 0 33 -16t-25 -43l-182 -197q-17 -18 -43 -18h-43q-31 0 -31 16z" />
<glyph unicode="&#xdb;" horiz-adv-x="877" d="M80 1417q0 39 80 39h184q78 0 78 -39q0 2 -23 -34.5t-24 -63.5l-25 -983q-4 -176 129 -176q78 0 105 63q18 42 18 133v15l-18 947q-1 27 -24 63.5t-23 35.5q0 39 77 39h99q80 0 80 -39q0 -1 -24 -33.5t-24 -60.5v-4l19 -979q0 -181 -62 -266q-73 -99 -247 -99 q-195 0 -273 86q-73 82 -73 279q0 40 2 145l16 838q1 27 -23 60t-24 34zM250 1633q0 12 12 32l99 168q22 37 53 37h100q25 0 47 -37l95 -163q12 -26 12 -39q0 -37 -33 -37q-26 0 -57 37l-119 143l-131 -152q-24 -28 -47 -28q-31 0 -31 39z" />
<glyph unicode="&#xdc;" horiz-adv-x="877" d="M80 1417q0 39 80 39h184q78 0 78 -39q0 2 -23 -34.5t-24 -63.5l-25 -983q-4 -176 129 -176q78 0 105 63q18 42 18 133v15l-18 947q-1 27 -24 63.5t-23 35.5q0 39 77 39h99q80 0 80 -39q0 -1 -24 -33.5t-24 -60.5v-4l19 -979q0 -181 -62 -266q-73 -99 -247 -99 q-195 0 -273 86q-73 82 -73 279q0 40 2 145l16 838q1 27 -23 60t-24 34zM266 1704q0 40 33.5 75.5t73.5 35.5q57 0 57 -62q0 -40 -34 -73t-74 -33q-56 0 -56 57zM488 1704q0 40 34 75.5t74 35.5q56 0 56 -62q0 -40 -33.5 -73t-73.5 -33q-57 0 -57 57z" />
<glyph unicode="&#xdd;" horiz-adv-x="512" d="M84 39l24.5 34.5t24.5 63.5v1182q0 29 -23.5 63.5l-23.5 34.5q0 39 78 39h184q78 0 78 -39l-23.5 -34.5t-23.5 -63.5v-1182q0 -29 23.5 -63.5l23.5 -34.5q0 -39 -78 -39h-184q-80 0 -80 39zM168 1702q0 44 37 81.5t80 37.5q61 0 61 -65q0 -43 -36 -79t-79 -36 q-63 0 -63 61z" />
<glyph unicode="&#xde;" horiz-adv-x="801" d="M55 406q0 73 51 73q44 0 91 -131q36 -101 51 -128q43 -79 102 -79q121 0 121 238q0 96 -16 145q-35 108 -155 214q-111 95 -160 182q-52 92 -52 213q0 139 75 238q82 110 216 110q18 0 53.5 -11.5t48.5 -11.5q10 0 34 8.5t36 8.5q33 0 49 -91l29 -170q4 -23 4 -69 q0 -72 -55 -72q-38 0 -65 80q-11 34 -19 53q-57 144 -121 144q-80 0 -80 -131q0 -113 94 -195q20 -17 68 -54q115 -87 163 -153q117 -159 117 -364q0 -189 -80 -321q-95 -157 -274 -157q-34 0 -82 18l-51 19q-13 0 -41.5 -12t-42.5 -12q-44 0 -60 94l-45 270q-4 24 -4 54z M231 -324l23 68q76 -33 127 -33q63 0 63 60q0 61 -61 61h-21q-35 0 -35 31v137h62v-108q40 6 53 6q125 0 125 -127q0 -67 -51 -104q-46 -34 -115 -34q-92 0 -170 43z" />
<glyph unicode="&#xdf;" horiz-adv-x="829" d="M-8 -172q23 -21 45 -21q48 0 61 61q4 19 4 99v901h-47q-32 0 -32 33v29q0 33 32 33h47v36q0 482 306 482q136 0 211 -108q67 -95 67 -236q0 -227 -207 -271q150 -52 227 -188q70 -123 70 -291q0 -161 -54 -269q-71 -141 -216 -141q-115 0 -115 70q0 29 35 29q7 0 19.5 -3 t19.5 -3q92 0 92 307q0 289 -96 385q-13 13 -66 38q-43 20 -43 36v24q0 29 43 43l24 8q52 20 67 105q6 34 6 133q0 246 -91 246q-100 0 -100 -332v-1114q0 -144 -18 -198q-34 -101 -146 -101q-145 0 -145 166v12z" />
<glyph unicode="&#xe0;" horiz-adv-x="688" d="M61 233q0 276 314 414l-4 64q-10 168 -90 168q-33 0 -62 -25q55 -33 55 -94q0 -94 -94 -94q-100 0 -100 122q0 95 70 148q63 49 161 49q138 0 199 -82q49 -68 57 -213l25 -478q4 -75 45 -75q16 0 26 2q3 -9 3 -30q0 -129 -115 -129q-107 0 -125 141q-64 -141 -172 -141 q-92 0 -146 84q-47 72 -47 169zM88 1354q0 18 35 18h121q20 0 37 -29l119 -200q12 -20 12 -31q0 -14 -29 -14h-43q-23 0 -43 18l-182 197q-27 29 -27 41zM246 307q0 -174 76 -174q69 0 69 117v22l-10 269q-1 18 -12 18q-52 0 -91 -104q-32 -86 -32 -148z" />
<glyph unicode="&#xe1;" horiz-adv-x="688" d="M61 233q0 276 314 414l-4 64q-10 168 -90 168q-33 0 -62 -25q55 -33 55 -94q0 -94 -94 -94q-100 0 -100 122q0 95 70 148q63 49 161 49q138 0 199 -82q49 -68 57 -213l25 -478q4 -75 45 -75q16 0 26 2q3 -9 3 -30q0 -129 -115 -129q-107 0 -125 141q-64 -141 -172 -141 q-92 0 -146 84q-47 72 -47 169zM246 307q0 -174 76 -174q69 0 69 117v22l-10 269q-1 18 -12 18q-52 0 -91 -104q-32 -86 -32 -148zM250 1114l14 28l119 201q17 29 37 29h121q33 0 33 -16t-25 -43l-182 -197q-17 -18 -43 -18h-43q-31 0 -31 16z" />
<glyph unicode="&#xe2;" horiz-adv-x="688" d="M61 233q0 276 314 414l-4 64q-10 168 -90 168q-33 0 -62 -25q55 -33 55 -94q0 -94 -94 -94q-100 0 -100 122q0 95 70 148q63 49 161 49q138 0 199 -82q49 -68 57 -213l25 -478q4 -75 45 -75q16 0 26 2q3 -9 3 -30q0 -129 -115 -129q-107 0 -125 141q-64 -141 -172 -141 q-92 0 -146 84q-47 72 -47 169zM121 1137q0 12 12 32l99 168q22 37 53 37h100q25 0 47 -37l95 -163q12 -26 12 -39q0 -37 -33 -37q-26 0 -57 37l-119 143l-131 -152q-24 -28 -47 -28q-31 0 -31 39zM246 307q0 -174 76 -174q69 0 69 117v22l-10 269q-1 18 -12 18 q-52 0 -91 -104q-32 -86 -32 -148z" />
<glyph unicode="&#xe3;" horiz-adv-x="688" d="M61 233q0 276 314 414l-4 64q-10 168 -90 168q-33 0 -62 -25q55 -33 55 -94q0 -94 -94 -94q-100 0 -100 122q0 95 70 148q63 49 161 49q138 0 199 -82q49 -68 57 -213l25 -478q4 -75 45 -75q16 0 26 2q3 -9 3 -30q0 -129 -115 -129q-107 0 -125 141q-64 -141 -172 -141 q-92 0 -146 84q-47 72 -47 169zM105 1149q0 20 41 88q51 84 104 84q25 0 86 -30.5t80 -30.5t58.5 38.5t48.5 38.5q28 0 28 -26q0 -23 -39 -90q-49 -84 -106 -84q-25 0 -85.5 30.5t-78.5 30.5q-19 0 -58.5 -38t-48.5 -38q-30 0 -30 27zM246 307q0 -174 76 -174q69 0 69 117 v22l-10 269q-1 18 -12 18q-52 0 -91 -104q-32 -86 -32 -148z" />
<glyph unicode="&#xe4;" horiz-adv-x="688" d="M61 233q0 276 314 414l-4 64q-10 168 -90 168q-33 0 -62 -25q55 -33 55 -94q0 -94 -94 -94q-100 0 -100 122q0 95 70 148q63 49 161 49q138 0 199 -82q49 -68 57 -213l25 -478q4 -75 45 -75q16 0 26 2q3 -9 3 -30q0 -129 -115 -129q-107 0 -125 141q-64 -141 -172 -141 q-92 0 -146 84q-47 72 -47 169zM137 1208q0 40 33.5 75.5t73.5 35.5q57 0 57 -62q0 -40 -34 -73t-74 -33q-56 0 -56 57zM246 307q0 -174 76 -174q69 0 69 117v22l-10 269q-1 18 -12 18q-52 0 -91 -104q-32 -86 -32 -148zM359 1208q0 40 34 75.5t74 35.5q56 0 56 -62 q0 -40 -33.5 -73t-73.5 -33q-57 0 -57 57z" />
<glyph unicode="&#xe5;" horiz-adv-x="678" d="M61 233q0 276 314 414l-4 64q-10 168 -90 168q-33 0 -62 -25q55 -33 55 -94q0 -94 -94 -94q-100 0 -100 122q0 92 66 146q61 51 155 51q138 0 198 -82q50 -67 58 -213l27 -478q4 -75 43 -75q18 0 28 2q2 -10 2 -30q0 -129 -112 -129q-100 0 -119 141q-64 -141 -172 -141 q-92 0 -146 84q-47 72 -47 169zM137 1268q0 82 56.5 137t138.5 55q81 0 136.5 -55.5t55.5 -136.5t-56 -138t-136 -57q-83 0 -139 56t-56 139zM240 1266q0 -39 26.5 -65.5t65.5 -26.5t65.5 26.5t26.5 65.5q0 38 -27 65t-65 27t-65 -27t-27 -65zM246 307q0 -174 76 -174 q69 0 69 117v22l-10 269q-1 18 -12 18q-52 0 -91 -104q-32 -86 -32 -148z" />
<glyph unicode="&#xe6;" horiz-adv-x="930" d="M61 233q0 276 314 414l-4 64q-10 168 -90 168q-33 0 -62 -25q55 -33 55 -94q0 -94 -94 -94q-100 0 -100 122q0 92 66 146q61 51 155 51q141 0 215 -98q64 98 158 98q115 0 171 -139q42 -104 42 -236q0 -37 -8.5 -51t-41.5 -27l-35 -14q-113 -45 -147 -65l-86 -50 q43 -215 131 -215q45 0 64 31q9 15 17 42q13 44 40 44q45 0 45 -72q0 -109 -51 -177q-56 -76 -162 -76q-122 0 -204 139q-68 -139 -195 -139q-92 0 -146 84q-47 72 -47 169zM246 307q0 -174 76 -174q69 0 69 117v22l-10 269q-1 18 -12 18q-52 0 -91 -104q-32 -86 -32 -148z M547 659q0 -63 10 -159q139 56 139 184q0 64 -14 117q-22 82 -68 82q-67 0 -67 -224z" />
<glyph unicode="&#xe7;" horiz-adv-x="575" d="M51 410q0 192 58 352q81 223 239 223q85 0 142 -63t57 -148q0 -30 -31 -57l-88 -76q-14 -12 -29 -12q-26 0 -26 26q0 10 2 30t2 30q0 174 -74 174q-98 0 -98 -281q0 -129 27 -238q42 -169 133 -169q58 0 77 71q1 3 6 26q12 54 50 54q49 0 49 -106q0 -118 -54 -188 q-60 -78 -174 -78q-144 0 -215 152q-53 114 -53 278zM143 -324l23 68q76 -33 127 -33q63 0 63 60q0 61 -61 61h-21q-35 0 -35 31v137h62v-108q40 6 53 6q125 0 125 -127q0 -67 -51 -104q-46 -34 -115 -34q-92 0 -170 43z" />
<glyph unicode="&#xe8;" horiz-adv-x="590" d="M43 430q0 188 57 342q79 213 236 213q115 0 171 -139q42 -104 42 -236q0 -38 -8 -50q-9 -15 -42 -28l-39 -15q-107 -41 -145 -64l-84 -50q43 -215 129 -215q45 0 64 31q8 13 17 42q14 44 42 44q45 0 45 -72q0 -109 -52 -177q-57 -76 -163 -76q-145 0 -216 163 q-54 124 -54 287zM82 1354q0 18 35 18h121q20 0 37 -29l119 -200q12 -20 12 -31q0 -14 -29 -14h-43q-23 0 -43 18l-182 197q-27 29 -27 41zM207 659q0 -63 10 -159q139 56 139 184q0 199 -80 199q-69 0 -69 -224z" />
<glyph unicode="&#xe9;" horiz-adv-x="590" d="M43 430q0 188 57 342q79 213 236 213q115 0 171 -139q42 -104 42 -236q0 -38 -8 -50q-9 -15 -42 -28l-39 -15q-107 -41 -145 -64l-84 -50q43 -215 129 -215q45 0 64 31q8 13 17 42q14 44 42 44q45 0 45 -72q0 -109 -52 -177q-57 -76 -163 -76q-145 0 -216 163 q-54 124 -54 287zM207 659q0 -63 10 -159q139 56 139 184q0 199 -80 199q-69 0 -69 -224zM244 1114l14 28l119 201q17 29 37 29h121q33 0 33 -16t-25 -43l-182 -197q-17 -18 -43 -18h-43q-31 0 -31 16z" />
<glyph unicode="&#xea;" horiz-adv-x="590" d="M43 430q0 188 57 342q79 213 236 213q115 0 171 -139q42 -104 42 -236q0 -38 -8 -50q-9 -15 -42 -28l-39 -15q-107 -41 -145 -64l-84 -50q43 -215 129 -215q45 0 64 31q8 13 17 42q14 44 42 44q45 0 45 -72q0 -109 -52 -177q-57 -76 -163 -76q-145 0 -216 163 q-54 124 -54 287zM115 1137q0 12 12 32l99 168q22 37 53 37h100q25 0 47 -37l95 -163q12 -26 12 -39q0 -37 -33 -37q-26 0 -57 37l-119 143l-131 -152q-24 -28 -47 -28q-31 0 -31 39zM207 659q0 -63 10 -159q139 56 139 184q0 199 -80 199q-69 0 -69 -224z" />
<glyph unicode="&#xeb;" horiz-adv-x="590" d="M43 430q0 188 57 342q79 213 236 213q115 0 171 -139q42 -104 42 -236q0 -38 -8 -50q-9 -15 -42 -28l-39 -15q-107 -41 -145 -64l-84 -50q43 -215 129 -215q45 0 64 31q8 13 17 42q14 44 42 44q45 0 45 -72q0 -109 -52 -177q-57 -76 -163 -76q-145 0 -216 163 q-54 124 -54 287zM131 1208q0 40 33.5 75.5t73.5 35.5q57 0 57 -62q0 -40 -34 -73t-74 -33q-56 0 -56 57zM207 659q0 -63 10 -159q139 56 139 184q0 199 -80 199q-69 0 -69 -224zM353 1208q0 40 34 75.5t74 35.5q56 0 56 -62q0 -40 -33.5 -73t-73.5 -33q-57 0 -57 57z" />
<glyph unicode="&#xec;" horiz-adv-x="412" d="M-35 1354q0 18 35 18h121q20 0 37 -29l119 -200q12 -20 12 -31q0 -14 -29 -14h-43q-23 0 -43 18l-182 197q-27 29 -27 41zM59 838q0 25 50 53l135 76q21 12 37 12q26 0 26 -43v-801q0 -42 43 -104q0 -31 -63 -31h-160q-63 0 -64 31q0 -27 23 28.5t23 75.5v545 q0 94 -13 111q-3 2 -11 8q-26 18 -26 39z" />
<glyph unicode="&#xed;" horiz-adv-x="412" d="M59 838q0 25 50 53l135 76q21 12 37 12q26 0 26 -43v-801q0 -42 43 -104q0 -31 -63 -31h-160q-63 0 -64 31q0 -27 23 28.5t23 75.5v545q0 94 -13 111q-3 2 -11 8q-26 18 -26 39zM127 1114l14 28l119 201q17 29 37 29h121q33 0 33 -16t-25 -43l-182 -197q-17 -18 -43 -18 h-43q-31 0 -31 16z" />
<glyph unicode="&#xee;" horiz-adv-x="412" d="M-2 1137q0 12 12 32l99 168q22 37 53 37h100q25 0 47 -37l95 -163q12 -26 12 -39q0 -37 -33 -37q-26 0 -57 37l-119 143l-131 -152q-24 -28 -47 -28q-31 0 -31 39zM59 838q0 25 50 53l135 76q21 12 37 12q26 0 26 -43v-801q0 -42 43 -104q0 -31 -63 -31h-160 q-63 0 -64 31q0 -27 23 28.5t23 75.5v545q0 94 -13 111q-3 2 -11 8q-26 18 -26 39z" />
<glyph unicode="&#xef;" horiz-adv-x="412" d="M14 1208q0 40 33.5 75.5t73.5 35.5q57 0 57 -62q0 -40 -34 -73t-74 -33q-56 0 -56 57zM59 838q0 25 50 53l135 76q21 12 37 12q26 0 26 -43v-801q0 -42 43 -104q0 -31 -63 -31h-160q-63 0 -64 31q0 -27 23 28.5t23 75.5v545q0 94 -13 111q-3 2 -11 8q-26 18 -26 39z M236 1208q0 40 34 75.5t74 35.5q56 0 56 -62q0 -40 -33.5 -73t-73.5 -33q-57 0 -57 57z" />
<glyph unicode="&#xf0;" horiz-adv-x="696" d="M68 -127q0 107 122 182q-116 56 -116 152q0 97 131 155q-131 97 -131 285q0 143 68 235q75 103 214 103q74 0 136 -41q60 197 180 197q40 0 66 -26t26 -66q0 -84 -76 -84q-15 0 -43 8t-43 8q-47 0 -61 -82q82 -96 82 -242q0 -124 -52 -209q-59 -99 -174 -116 q-11 -2 -42 -6q-122 -15 -122 -62q0 -28 90 -51q51 -13 87 -25q268 -88 268 -278q0 -125 -95 -196q-85 -64 -214 -64q-112 0 -200 54q-101 62 -101 169zM160 1399q0 22 14 22h43l57 -58q57 -58 84 -58q66 0 140 116h45q14 0 14 -22q0 -87 -56.5 -147t-142.5 -60 q-87 0 -142.5 59.5t-55.5 147.5zM229 -106q0 -64 40.5 -101t105.5 -37q121 0 121 105q0 74 -82 118q-41 22 -146 48q-39 -72 -39 -133zM264 688q0 -268 90 -268q78 0 78 211q0 274 -94 274q-74 0 -74 -217z" />
<glyph unicode="&#xf1;" horiz-adv-x="739" d="M59 838q0 22 41 48q6 3 9 5l118 76q28 18 39 18q25 0 25 -49v-74q68 123 135 123q128 0 184 -284q23 -119 39 -375l8 -131q1 -8 3 -31q5 -62 12 -78q3 -4 21 -26q14 -17 14 -29q0 -31 -60 -31h-164q-61 0 -61 31l21.5 35t21.5 65v4l-4 111q-6 161 -26 312 q-35 261 -95 261q-33 0 -33 -145v-539q0 -35 21 -69l20 -35q0 -31 -61 -31h-160q-63 0 -64 31q0 -27 23 28.5t23 75.5v545q0 93 -13 117l-2 1q-35 13 -35 40zM123 1149q0 20 41 88q51 84 104 84q25 0 86 -30.5t80 -30.5t58.5 38.5t48.5 38.5q28 0 28 -26q0 -23 -39 -90 q-49 -84 -106 -84q-25 0 -85.5 30.5t-78.5 30.5q-19 0 -58.5 -38t-48.5 -38q-30 0 -30 27z" />
<glyph unicode="&#xf2;" horiz-adv-x="627" d="M53 455q0 161 52 318q71 214 200 214q139 0 214 -205q56 -153 56 -319q0 -161 -47 -295q-66 -188 -198 -188q-146 0 -221 176q-56 132 -56 299zM71 1354q0 18 35 18h121q20 0 37 -29l119 -200q12 -20 12 -31q0 -14 -29 -14h-43q-23 0 -43 18l-182 197q-27 29 -27 41z M178 717q0 -108 64 -303q75 -228 155 -228q54 0 54 70q0 118 -86 330q-84 207 -140 207q-47 0 -47 -76z" />
<glyph unicode="&#xf3;" horiz-adv-x="627" d="M53 455q0 161 52 318q71 214 200 214q139 0 214 -205q56 -153 56 -319q0 -161 -47 -295q-66 -188 -198 -188q-146 0 -221 176q-56 132 -56 299zM178 717q0 -108 64 -303q75 -228 155 -228q54 0 54 70q0 118 -86 330q-84 207 -140 207q-47 0 -47 -76zM233 1114l14 28 l119 201q17 29 37 29h121q33 0 33 -16t-25 -43l-182 -197q-17 -18 -43 -18h-43q-31 0 -31 16z" />
<glyph unicode="&#xf4;" horiz-adv-x="627" d="M53 455q0 161 52 318q71 214 200 214q139 0 214 -205q56 -153 56 -319q0 -161 -47 -295q-66 -188 -198 -188q-146 0 -221 176q-56 132 -56 299zM104 1137q0 12 12 32l99 168q22 37 53 37h100q25 0 47 -37l95 -163q12 -26 12 -39q0 -37 -33 -37q-26 0 -57 37l-119 143 l-131 -152q-24 -28 -47 -28q-31 0 -31 39zM178 717q0 -108 64 -303q75 -228 155 -228q54 0 54 70q0 118 -86 330q-84 207 -140 207q-47 0 -47 -76z" />
<glyph unicode="&#xf5;" horiz-adv-x="627" d="M53 455q0 161 52 318q71 214 200 214q139 0 214 -205q56 -153 56 -319q0 -161 -47 -295q-66 -188 -198 -188q-146 0 -221 176q-56 132 -56 299zM88 1149q0 20 41 88q51 84 104 84q25 0 86 -30.5t80 -30.5t58.5 38.5t48.5 38.5q28 0 28 -26q0 -23 -39 -90 q-49 -84 -106 -84q-25 0 -85.5 30.5t-78.5 30.5q-19 0 -58.5 -38t-48.5 -38q-30 0 -30 27zM178 717q0 -108 64 -303q75 -228 155 -228q54 0 54 70q0 118 -86 330q-84 207 -140 207q-47 0 -47 -76z" />
<glyph unicode="&#xf6;" horiz-adv-x="627" d="M53 455q0 161 52 318q71 214 200 214q139 0 214 -205q56 -153 56 -319q0 -161 -47 -295q-66 -188 -198 -188q-146 0 -221 176q-56 132 -56 299zM120 1208q0 40 33.5 75.5t73.5 35.5q57 0 57 -62q0 -40 -34 -73t-74 -33q-56 0 -56 57zM178 717q0 -108 64 -303 q75 -228 155 -228q54 0 54 70q0 118 -86 330q-84 207 -140 207q-47 0 -47 -76zM342 1208q0 40 34 75.5t74 35.5q56 0 56 -62q0 -40 -33.5 -73t-73.5 -33q-57 0 -57 57z" />
<glyph unicode="&#xf7;" horiz-adv-x="1706" d="M254 528v166h1198v-166h-1198zM717 229q0 57 40 97.5t97 40.5t97 -40.5t40 -97.5t-40 -96t-97 -39q-58 0 -97.5 38.5t-39.5 96.5zM717 989q0 57 40 98t97 41t97 -41t40 -98t-40 -96t-97 -39q-58 0 -97.5 38.5t-39.5 96.5z" />
<glyph unicode="&#xf8;" horiz-adv-x="627" d="M35 -82q0 5 4 16l78 205q-64 132 -64 316q0 161 52 318q71 214 200 214q81 0 144 -84l47 115q9 22 30 22q2 -1 6 -2l31 -12q15 -2 15 -20q0 -5 -5 -17l-71 -176q73 -140 73 -352q0 -166 -48 -298q-68 -186 -205 -186q-85 0 -144 76l-63 -147q-10 -23 -29 -23q-2 1 -6 2 l-32 12q-13 7 -13 21zM172 713q0 -108 72 -326l100 262q-63 150 -119 150q-53 0 -53 -86zM281 301q63 -119 118 -119q54 0 54 70q0 108 -74 313z" />
<glyph unicode="&#xf9;" horiz-adv-x="733" d="M51 838q0 25 47 53l127 76q20 12 39 12q25 0 25 -43v-666q0 -123 59 -123q90 0 90 207v326q0 95 -12 111q-3 2 -9 7q-26 18 -26 40q0 25 47 53l127 76q20 12 39 12q25 0 25 -43v-723q0 -72 24 -92q4 -3 11 -7q24 -13 24 -34q0 -24 -41 -39l-115 -41q-43 -20 -59 -20 q-35 0 -35 86v63q-70 -149 -178 -149q-111 0 -145 109q-17 55 -17 202v389q0 96 -12 111q-3 3 -9 7q-26 18 -26 40zM125 1354q0 18 35 18h121q20 0 37 -29l119 -200q12 -20 12 -31q0 -14 -29 -14h-43q-23 0 -43 18l-182 197q-27 29 -27 41z" />
<glyph unicode="&#xfa;" horiz-adv-x="733" d="M51 838q0 25 47 53l127 76q20 12 39 12q25 0 25 -43v-666q0 -123 59 -123q90 0 90 207v326q0 95 -12 111q-3 2 -9 7q-26 18 -26 40q0 25 47 53l127 76q20 12 39 12q25 0 25 -43v-723q0 -72 24 -92q4 -3 11 -7q24 -13 24 -34q0 -24 -41 -39l-115 -41q-43 -20 -59 -20 q-35 0 -35 86v63q-70 -149 -178 -149q-111 0 -145 109q-17 55 -17 202v389q0 96 -12 111q-3 3 -9 7q-26 18 -26 40zM287 1114l14 28l119 201q17 29 37 29h121q33 0 33 -16t-25 -43l-182 -197q-17 -18 -43 -18h-43q-31 0 -31 16z" />
<glyph unicode="&#xfb;" horiz-adv-x="733" d="M51 838q0 25 47 53l127 76q20 12 39 12q25 0 25 -43v-666q0 -123 59 -123q90 0 90 207v326q0 95 -12 111q-3 2 -9 7q-26 18 -26 40q0 25 47 53l127 76q20 12 39 12q25 0 25 -43v-723q0 -72 24 -92q4 -3 11 -7q24 -13 24 -34q0 -24 -41 -39l-115 -41q-43 -20 -59 -20 q-35 0 -35 86v63q-70 -149 -178 -149q-111 0 -145 109q-17 55 -17 202v389q0 96 -12 111q-3 3 -9 7q-26 18 -26 40zM158 1137q0 12 12 32l99 168q22 37 53 37h100q25 0 47 -37l95 -163q12 -26 12 -39q0 -37 -33 -37q-26 0 -57 37l-119 143l-131 -152q-24 -28 -47 -28 q-31 0 -31 39z" />
<glyph unicode="&#xfc;" horiz-adv-x="733" d="M51 838q0 25 47 53l127 76q20 12 39 12q25 0 25 -43v-666q0 -123 59 -123q90 0 90 207v326q0 95 -12 111q-3 2 -9 7q-26 18 -26 40q0 25 47 53l127 76q20 12 39 12q25 0 25 -43v-723q0 -72 24 -92q4 -3 11 -7q24 -13 24 -34q0 -24 -41 -39l-115 -41q-43 -20 -59 -20 q-35 0 -35 86v63q-70 -149 -178 -149q-111 0 -145 109q-17 55 -17 202v389q0 96 -12 111q-3 3 -9 7q-26 18 -26 40zM174 1208q0 40 33.5 75.5t73.5 35.5q57 0 57 -62q0 -40 -34 -73t-74 -33q-56 0 -56 57zM396 1208q0 40 34 75.5t74 35.5q56 0 56 -62q0 -40 -33.5 -73 t-73.5 -33q-57 0 -57 57z" />
<glyph unicode="&#xfd;" horiz-adv-x="412" d="M59 838q0 25 50 53l135 76q21 12 37 12q26 0 26 -43v-801q0 -42 43 -104q0 -31 -63 -31h-160q-63 0 -64 31q0 -27 23 28.5t23 75.5v545q0 94 -13 111q-3 2 -11 8q-26 18 -26 39z" />
<glyph unicode="&#xfe;" horiz-adv-x="606" d="M43 752q0 104 61 169.5t164 65.5q15 0 45 -7t45 -7q10 0 30 6t30 6q25 0 43 -72l35 -137q0 -1 1 -5q3 -14 3 -21q0 -43 -41 -43q-26 0 -60 55q-3 6 -16 27q-51 85 -92 85q-76 0 -76 -83q0 -67 117 -149q5 -3 18 -13q114 -80 158 -144q55 -80 55 -202q0 -130 -63 -213 q-69 -93 -195 -93q-20 0 -58 11.5t-54 11.5q-11 0 -32 -7t-30 -7q-38 0 -49 67l-29 175q-2 12 -2 22q0 43 37 43q27 0 48 -47q9 -21 16 -34q60 -116 120 -116q93 0 93 131q0 78 -46 140q-30 41 -114.5 109t-115.5 115q-46 70 -46 161zM133 -324l23 68q76 -33 127 -33 q63 0 63 60q0 61 -61 61h-21q-35 0 -35 31v137h62v-108q40 6 53 6q125 0 125 -127q0 -67 -51 -104q-46 -34 -115 -34q-92 0 -170 43z" />
<glyph unicode="&#xff;" horiz-adv-x="571" d="M-10 932q0 33 59 33h164q61 0 61 -31q0 -5 -21.5 -35.5t-21.5 -50.5q0 -12 2 -18l80 -422l70 385q4 14 4 49t-39 90q0 33 62 33h98q59 0 59 -31l-24 -43q-23 -42 -27 -62l-166 -901q-24 -129 -56 -186q-52 -92 -157 -92q-55 0 -79 18.5t-33 71.5l-19 109q-2 11 -2 24 q0 49 35 49q10 0 48 -42t63 -42q88 0 88 187v12l-177 735q-18 75 -43 115zM94 1208q0 40 33.5 75.5t73.5 35.5q57 0 57 -62q0 -40 -34 -73t-74 -33q-56 0 -56 57zM316 1208q0 40 34 75.5t74 35.5q56 0 56 -62q0 -40 -33.5 -73t-73.5 -33q-57 0 -57 57z" />
<glyph unicode="&#x152;" horiz-adv-x="1284" d="M61 598q0 296 65 523q100 349 323 349q39 0 117.5 -7t117.5 -7h256q25 0 75 7t75 7q34 0 51 -54v-1l53 -198q20 -75 20 -105q0 -53 -47 -53q-39 0 -92 87q-32 53 -45 71q-85 118 -164 118q-55 0 -55 -86v-235q0 -111 49 -111q25 0 58 47t65 47q33 0 53 -51l92 -239 q19 -49 19 -68q0 -47 -51 -47q-25 0 -49 28q-2 2 -21 25q-100 117 -160 117q-55 0 -55 -92v-406q0 -67 6 -85q13 -38 64 -38q90 0 174 109q23 29 53 75q52 78 84 78q47 0 47 -53q0 -16 -4 -31l-70 -262q-23 -86 -57 -86q-5 1 -20 6q-67 23 -136 23h-266q-40 0 -118.5 -8 t-118.5 -8q-216 0 -315 212q-73 157 -73 402zM336 743l1 -336q0 -130 37 -204q34 -68 89 -68q82 0 99 155q1 9 1 210v501q0 170 -4 201q-19 148 -96 148q-100 0 -123 -273q-5 -54 -4 -334z" />
<glyph unicode="&#x153;" horiz-adv-x="973" d="M53 455q0 164 51 318q71 214 201 214q115 0 207 -188q71 188 205 188q114 0 171 -141q42 -104 42 -236q0 -37 -8.5 -51t-41.5 -27l-35 -14q-113 -45 -147 -65l-86 -50q43 -215 131 -215q43 0 62 31q8 13 17 42q14 44 42 44q45 0 45 -72q0 -109 -51 -177q-56 -76 -162 -76 q-127 0 -192 126q-66 -126 -174 -126q-146 0 -221 176q-56 132 -56 299zM178 717q0 -108 64 -303q75 -228 155 -228q58 0 58 82q0 143 -84 353l-4 10q-69 172 -131 172q-58 0 -58 -86zM588 659q0 -39 11 -149q0 -3 1 -10q139 56 139 184q0 64 -14 117q-22 82 -68 82 q-69 0 -69 -224z" />
<glyph unicode="&#x178;" horiz-adv-x="711" d="M-35 1417q0 39 55 39h207q78 0 78 -41q0 -5 -24.5 -34.5t-24.5 -47.5q0 -7 2 -14l137 -492l101 492q0 2 1 6t1 6q0 19 -23.5 48.5t-23.5 35.5q0 41 75 41h140q57 0 57 -39q0 -9 -29.5 -41t-34.5 -51l-178 -721v-467q0 -30 28 -63.5t28 -34.5q0 -39 -70 -39h-219 q-68 0 -68 39q0 1 28 34.5t28 63.5v443l-209 735q-4 14 -34 56q-28 39 -28 46zM163 1704q0 40 33.5 75.5t73.5 35.5q57 0 57 -62q0 -40 -34 -73t-74 -33q-56 0 -56 57zM385 1704q0 40 34 75.5t74 35.5q56 0 56 -62q0 -40 -33.5 -73t-73.5 -33q-57 0 -57 57z" />
<glyph unicode="&#x2c6;" horiz-adv-x="1024" d="M303 1137q0 12 12 32l99 168q22 37 53 37h100q25 0 47 -37l95 -163q12 -26 12 -39q0 -37 -33 -37q-26 0 -57 37l-119 143l-131 -152q-24 -28 -47 -28q-31 0 -31 39z" />
<glyph unicode="&#x2dc;" horiz-adv-x="1024" d="M287 1149q0 20 41 88q51 84 104 84q25 0 86 -30.5t80 -30.5t58.5 38.5t48.5 38.5q28 0 28 -26q0 -23 -39 -90q-49 -84 -106 -84q-25 0 -85.5 30.5t-78.5 30.5q-19 0 -58.5 -38t-48.5 -38q-30 0 -30 27z" />
<glyph unicode="&#x2000;" horiz-adv-x="963" />
<glyph unicode="&#x2001;" horiz-adv-x="1927" />
<glyph unicode="&#x2002;" horiz-adv-x="963" />
<glyph unicode="&#x2003;" horiz-adv-x="1927" />
<glyph unicode="&#x2004;" horiz-adv-x="642" />
<glyph unicode="&#x2005;" horiz-adv-x="481" />
<glyph unicode="&#x2006;" horiz-adv-x="321" />
<glyph unicode="&#x2007;" horiz-adv-x="321" />
<glyph unicode="&#x2008;" horiz-adv-x="240" />
<glyph unicode="&#x2009;" horiz-adv-x="385" />
<glyph unicode="&#x200a;" horiz-adv-x="107" />
<glyph unicode="&#x2010;" horiz-adv-x="631" d="M78 399q0 9 6 31q2 5 2 6l31 103q9 31 29 38q11 5 51 5h219q21 0 63 17t47 17q27 0 27 -30q0 -10 -8 -37l-31 -103q-9 -30 -28 -38q-12 -5 -50 -5h-221q-22 0 -63 -16t-50 -16q-24 0 -24 28z" />
<glyph unicode="&#x2011;" horiz-adv-x="631" d="M78 399q0 9 6 31q2 5 2 6l31 103q9 31 29 38q11 5 51 5h219q21 0 63 17t47 17q27 0 27 -30q0 -10 -8 -37l-31 -103q-9 -30 -28 -38q-12 -5 -50 -5h-221q-22 0 -63 -16t-50 -16q-24 0 -24 28z" />
<glyph unicode="&#x2012;" horiz-adv-x="631" d="M78 399q0 9 6 31q2 5 2 6l31 103q9 31 29 38q11 5 51 5h219q21 0 63 17t47 17q27 0 27 -30q0 -10 -8 -37l-31 -103q-9 -30 -28 -38q-12 -5 -50 -5h-221q-22 0 -63 -16t-50 -16q-24 0 -24 28z" />
<glyph unicode="&#x2013;" horiz-adv-x="1024" d="M0 436v115h1024v-115h-1024z" />
<glyph unicode="&#x2014;" horiz-adv-x="2048" d="M0 436v115h2048v-115h-2048z" />
<glyph unicode="&#x2018;" horiz-adv-x="360" d="M63 1171q0 90 49 190q59 120 138 120q20 0 20 -17q0 16 -6 16q-11 0 -47 -69q-53 -103 -53 -133q0 -10 62 -17q75 -23 75 -135q0 -147 -113 -147q-125 0 -125 192z" />
<glyph unicode="&#x2019;" horiz-adv-x="360" d="M63 1341q0 140 113 140q125 0 125 -191q0 -89 -49 -189q-59 -120 -137 -120q-19 0 -19 16q0 -16 6 -16q11 0 47 69q52 102 52 132q-1 6 -33 13q-39 8 -51 17q-54 38 -54 129z" />
<glyph unicode="&#x201a;" horiz-adv-x="360" d="M63 143q0 140 113 140q125 0 125 -191q0 -88 -49 -190q-58 -121 -137 -121q-17 0 -19 16q0 -16 5 -16q12 0 48 70q52 103 52 133q-1 6 -33 12q-39 7 -51 16q-54 39 -54 131z" />
<glyph unicode="&#x201c;" horiz-adv-x="688" d="M63 1171q0 90 49 190q59 120 138 120q20 0 20 -15q0 16 -6 16q-11 0 -47 -69q-53 -103 -53 -133q0 -9 25 -13l37 -6q75 -23 75 -135q0 -145 -113 -145q-125 0 -125 190zM391 1171q0 90 49 190q59 120 138 120q20 0 20 -15q0 16 -6 16q-11 0 -47 -69q-53 -103 -53 -133 q0 -11 60 -18q77 -25 77 -136q0 -145 -113 -145q-125 0 -125 190z" />
<glyph unicode="&#x201d;" horiz-adv-x="688" d="M63 1341q0 140 113 140q125 0 125 -191q0 -89 -49 -189q-59 -120 -137 -120q-19 0 -19 16q0 -16 6 -16q11 0 47 69q52 102 52 132q-1 6 -33 13q-39 8 -51 17q-54 38 -54 129zM391 1341q0 140 113 140q125 0 125 -191q0 -89 -49 -189q-59 -120 -138 -120q-18 0 -18 16 q0 -16 6 -16q11 0 47 69q53 101 53 132q0 6 -34 13q-40 8 -52 17q-53 38 -53 129z" />
<glyph unicode="&#x201e;" horiz-adv-x="688" d="M63 143q0 140 113 140q125 0 125 -191q0 -88 -49 -190q-58 -121 -137 -121q-17 0 -19 16q0 -16 5 -16q12 0 48 70q52 103 52 133q-1 6 -33 12q-39 7 -51 16q-54 39 -54 131zM391 143q0 140 113 140q125 0 125 -191q0 -89 -49 -190q-59 -121 -138 -121q-20 0 -20 16 q0 -16 6 -16q11 0 47 70q53 103 53 133q0 6 -34 12q-39 7 -52 16q-51 36 -51 131z" />
<glyph unicode="&#x2022;" horiz-adv-x="1208" d="M307 762q0 126 85.5 210.5t211.5 84.5q125 0 210 -85t85 -210t-86 -211t-211 -86q-126 0 -210.5 85.5t-84.5 211.5z" />
<glyph unicode="&#x2026;" horiz-adv-x="2048" d="M228 135q0 146 114 146q115 0 115 -146q0 -145 -115 -145q-114 0 -114 145zM910 135q0 146 114 146q115 0 115 -146q0 -145 -115 -145q-114 0 -114 145zM1594 135q0 146 114 146q115 0 115 -146q0 -145 -115 -145q-114 0 -114 145z" />
<glyph unicode="&#x202f;" horiz-adv-x="385" />
<glyph unicode="&#x2039;" horiz-adv-x="397" d="M45 481q0 12 18 45l179 333q13 24 26 24q4 0 11 -2t10 -2l45 -13q18 -3 18 -24q0 -7 -6 -25l-113 -336l113 -336q6 -18 6 -24q0 -20 -19 -25l-44 -12q-15 -4 -23 -4q-11 0 -24 24l-183 341q-14 26 -14 36z" />
<glyph unicode="&#x203a;" horiz-adv-x="397" d="M37 121q0 7 6 25l113 335l-113 336q-6 18 -6 25q0 18 20 24l46 13q14 4 22 4q11 0 24 -24l183 -341q14 -26 14 -37t-18 -45l-178 -332q-13 -24 -25 -24q-8 0 -23 4l-44 12q-21 6 -21 25z" />
<glyph unicode="&#x205f;" horiz-adv-x="481" />
<glyph unicode="&#x2122;" horiz-adv-x="1683" d="M233 1260l11 188h448l10 -188h-30q-15 153 -133 153h-11v-422q0 -48 39 -53l31 -4v-29h-260v29l32 4q38 5 38 53v422h-15q-115 0 -131 -153h-29zM770 905v29l33 4q41 5 41 51v373q0 51 -41 53l-33 2v31h199l135 -381l137 381h189v-27l-28 -2q-40 -3 -40 -53v-375 q0 -47 41 -53l27 -4v-29h-246v29l30 4q39 5 39 53v375l-163 -463h-27l-170 469v-381q0 -32 16 -45q11 -7 23 -8l35 -4v-29h-197z" />
<glyph unicode="&#xe000;" horiz-adv-x="965" d="M0 0v965h965v-965h-965z" />
</font>
</defs>
</svg>
